<svg width="70" height="60" viewBox="0 0 70 60" fill="none" xmlns="http://www.w3.org/2000/svg">
<path d="M34.9034 59.9572C30.5521 59.9572 26.2009 59.9572 21.8496 59.9572C19.3477 59.9572 18.5645 59.1911 18.5645 56.7175C18.5645 50.3256 18.5645 43.9555 18.5645 37.5636C18.5645 32.8353 20.7836 29.5299 25.0478 27.6035C26.2226 27.0782 27.4845 26.9031 28.7681 26.8812C32.8583 26.8593 36.9702 26.8374 41.0603 26.8812C46.7822 26.9468 51.264 31.4343 51.2858 37.1914C51.3293 43.8242 51.3075 50.4788 51.2858 57.1115C51.2858 59.0159 50.3937 59.9353 48.4792 59.9353C43.9757 59.9791 39.4286 59.9572 34.9034 59.9572Z" fill="white" />
<path d="M34.9035 0C41.8002 0.350243 47.174 5.25365 47.1957 12.3461C47.2175 19.4823 41.8437 24.7359 34.947 24.7359C28.0068 24.7359 22.6766 19.4385 22.6983 12.3461C22.7418 5.29743 28.0068 0.415914 34.9035 0Z" fill="white" />
<path d="M9.73161 59.9572C8.25219 59.8478 6.3594 60.1761 4.51013 59.607C1.76885 58.7533 0.0718638 56.5861 0.0501077 53.7185C0.0283515 49.9972 0.158899 46.2759 0.00660591 42.5764C-0.1892 37.3447 3.98799 32.4194 9.86216 32.1786C11.4939 32.1129 13.1256 32.1567 14.7573 32.1567C15.4753 32.1567 15.7363 32.3975 15.497 33.1636C15.0619 34.5646 14.9313 36.0094 14.9313 37.476C14.9531 44.0431 14.9313 50.5882 14.9313 57.1553C14.9313 57.7463 14.9313 58.3374 15.0401 58.8846C15.2142 59.6946 14.8443 59.9572 14.1264 59.9572C12.7992 59.9572 11.4721 59.9572 9.73161 59.9572Z" fill="white" />
<path d="M69.8222 47.8082C69.8222 49.6689 69.7352 51.5295 69.8439 53.3902C70.0398 56.7832 67.4943 59.7383 63.5564 59.9354C60.9891 60.0667 58.4219 59.9572 55.8546 59.9572C55.0496 59.9572 54.5928 59.6946 54.8538 58.7752C54.9626 58.403 54.9409 57.9871 54.9409 57.5712C54.9409 50.6101 54.9409 43.6491 54.9409 36.688C54.9409 35.4402 54.7451 34.2144 54.3752 33.0323C54.1794 32.3756 54.4187 32.1348 55.0061 32.1348C57.247 32.1567 59.4879 31.9597 61.7288 32.3537C66.2759 33.1855 69.7787 37.3447 69.8222 41.9854C69.844 43.9555 69.8222 45.8818 69.8222 47.8082Z" fill="white" />
<path d="M13.6695 29.9896C8.57857 29.9239 4.37961 25.6334 4.4884 20.5768C4.59718 15.4545 8.77438 11.361 13.8218 11.4486C18.9345 11.5361 23.09 15.7609 22.9594 20.7519C22.8071 25.918 18.6517 30.0333 13.6695 29.9896Z" fill="white" />
<path d="M56.2683 11.4486C61.4027 11.558 65.4929 15.7609 65.4058 20.7738C65.3188 25.918 61.0329 30.1209 56.0289 29.9896C50.9598 29.8363 46.8261 25.5459 46.9566 20.5768C47.0872 15.3888 51.2426 11.3391 56.2683 11.4486Z" fill="white" />
</svg>
