<svg width="151" height="150" viewBox="0 0 151 150" fill="none" xmlns="http://www.w3.org/2000/svg">
<path d="M134.939 0.0198131C146.044 0.0198131 151.76 7.61012 149.651 19.0893C148.246 26.6796 144.825 33.3797 141.077 39.9861C133.908 52.5897 124.959 63.8815 115.87 75.1264C114.464 76.8131 112.918 77.5159 110.669 77.6565C100.127 78.2188 90.0533 80.9831 80.3078 84.9188C70.7027 88.7609 61.7068 93.7742 52.9452 99.2092C52.4766 99.4904 51.9144 100.287 51.3521 99.5841C50.8836 99.0218 51.5864 98.4596 51.9144 97.9442C55.4753 92.7434 59.2236 87.6364 62.6439 82.3419C74.2168 64.4437 83.8687 45.6085 88.8352 24.6649C89.1631 23.3061 89.8191 22.3222 90.9904 21.4788C99.9395 14.7788 109.263 8.64091 119.431 4.00238C124.491 1.6597 129.645 -0.214456 134.939 0.0198131Z" fill="white"/>
<path d="M83.3532 6.81334C82.9315 16.2309 80.9636 25.3674 77.9181 34.2696C70.7964 55.0727 59.5983 73.6737 46.8072 91.4313C39.0295 102.208 30.549 112.375 21.7873 122.355C18.7887 125.775 18.7887 125.775 16.5866 121.98C9.74591 110.079 10.8704 96.5852 19.6321 85.6682C30.0336 72.6897 39.6386 59.1021 49.5716 45.7957C59.4578 32.5361 69.2502 19.2296 79.1363 5.92312C80.0734 4.65807 81.0105 3.43987 81.9476 2.17482C82.1818 1.89369 82.4161 1.51886 82.8846 1.65943C83.3532 1.79999 83.3532 2.26852 83.3532 2.64335C83.3532 4.00211 83.3532 5.40773 83.3532 6.81334Z" fill="white"/>
<path d="M115.073 85.4809C116.807 85.4809 118.494 85.4341 120.227 85.4809C120.977 85.5278 121.961 85.4341 122.195 86.3712C122.429 87.3082 121.492 87.6831 120.883 88.1047C116.994 90.9628 113.059 93.8209 109.217 96.679C93.7079 108.252 78.0119 119.59 62.7376 131.444C52.1018 139.691 37.5771 139.878 26.3322 132.475C24.8329 131.491 24.8797 130.789 26.1448 129.664C40.2009 117.154 55.241 106.097 71.9678 97.4286C83.6343 91.3845 95.8632 87.074 108.982 85.5746C109.357 85.5278 109.779 85.4341 110.154 85.4341C111.793 85.4341 113.433 85.4341 115.073 85.4809Z" fill="white"/>
<path d="M20.616 138.707C20.4754 139.55 19.96 139.925 19.5384 140.347C16.6803 143.205 13.7753 146.016 11.011 148.968C9.74592 150.28 8.76199 150.374 7.49694 149.062C5.34167 146.813 3.13954 144.611 0.890559 142.455C-0.327639 141.284 -0.280785 140.3 0.937413 139.129C3.93605 136.271 6.84099 133.366 9.69907 130.414C10.8236 129.243 11.6669 129.102 12.6977 130.461C14.6656 133.085 17.0083 135.38 19.6321 137.395C20.1006 137.723 20.5691 138.145 20.616 138.707Z" fill="white"/>
</svg>
