<svg width="67" height="60" viewBox="0 0 67 60" fill="none" xmlns="http://www.w3.org/2000/svg">
<g clip-path="url(#clip0_19_175)">
<path d="M48.3959 23.6721C46.9771 23.6929 45.5373 23.6721 44.1185 23.6721C42.3866 23.6721 42.3866 23.6721 42.3866 21.9876C42.3866 16.2059 42.4075 10.4035 42.3866 4.62187C42.3657 1.62707 40.6965 0.00488947 37.7127 -0.0159085C34.8541 -0.0159088 32.0163 -0.015909 29.1577 -0.0159093C26.153 -0.0159095 24.4838 1.62707 24.4629 4.60108C24.442 7.13834 24.4629 9.6548 24.4629 12.1921C24.4629 15.6236 24.442 19.0551 24.4838 22.4867C24.4838 23.4018 24.1708 23.7345 23.2735 23.6929C22.4389 23.6305 21.6043 23.6721 20.7697 23.6721C19.9976 23.6721 19.2465 23.6721 18.4744 23.6721C16.8469 23.6929 15.7201 24.3584 15.2402 25.6479C14.7186 27.0621 15.3237 28.1435 16.2835 29.1002C21.0826 33.9252 25.9235 38.7501 30.7644 43.5751C31.6199 44.4278 32.5588 45.1349 33.8734 44.9269C34.9166 44.7605 35.5844 44.0534 36.2729 43.3671C39.215 40.4347 42.1571 37.4815 45.0991 34.5491C46.9562 32.6981 48.855 30.868 50.712 28.9754C51.651 28.0395 52.1726 26.9165 51.5884 25.5855C50.9833 24.2129 49.8774 23.6305 48.3959 23.6721Z" fill="#195839"/>
<path d="M66.8957 31.6534C66.8748 29.0329 64.0162 27.5355 61.7627 28.9081C60.4481 29.7192 59.9474 30.9462 59.9474 32.4228C59.9474 36.8319 59.9682 41.2201 59.9474 45.6291C59.9265 49.8925 56.7966 53.0329 52.4983 53.0329C39.8119 53.0537 27.1255 53.0537 14.4391 53.0329C10.0782 53.0329 6.99003 49.8925 6.96917 45.5459C6.9483 42.2183 6.96917 38.8908 6.96917 35.5632C6.96917 34.357 7.0109 33.13 6.9483 31.9237C6.84397 29.9064 5.15385 28.2634 3.29679 28.3466C1.37714 28.4298 0 29.948 0 32.0485C0 36.8943 0 41.7608 0 46.6066C0 48.2287 0.312987 49.7885 1.02242 51.2443C3.75584 56.9844 8.28371 60 14.7312 60C20.991 60 27.2507 60 33.5104 60C39.7702 60 46.0299 59.9792 52.2896 60C54.4805 60 56.588 59.688 58.5702 58.7313C63.4319 56.3605 66.5201 52.5754 66.8539 47.1265C67.1461 41.9896 66.9374 36.8111 66.8957 31.6534Z" fill="#195839"/>
</g>
<defs>
<clipPath id="clip0_19_175">
<rect width="67" height="60" fill="white"/>
</clipPath>
</defs>
</svg>
