<svg width="63" height="60" viewBox="0 0 63 60" fill="none" xmlns="http://www.w3.org/2000/svg">
<path d="M7.50965 45.5882C7.50965 41.6667 7.50965 37.7451 7.50965 33.8235C7.50965 32.6078 7.45119 32.549 6.26243 32.5294C5.42446 32.5294 4.56699 32.5686 3.72902 32.5098C2.18948 32.4118 0.805843 31.9216 0.240696 30.3137C-0.304963 28.7451 0.0847935 27.3922 1.33201 26.2549C6.65219 21.4118 11.9334 16.549 17.2341 11.6863C20.9173 8.29412 24.62 4.92157 28.3032 1.5098C30.4663 -0.509804 32.0643 -0.490196 34.2275 1.4902C40.8143 7.54902 47.4207 13.5882 54.0076 19.6275C56.4241 21.8431 58.8211 24.098 61.2766 26.2941C62.5238 27.4118 62.8356 28.7647 62.3289 30.2745C61.8222 31.8039 60.5165 32.3333 59.0549 32.4706C58.1585 32.549 57.2426 32.4902 56.3266 32.5098C55.1184 32.5294 55.0599 32.5686 55.0599 33.7843C55.0599 41.4314 55.0599 49.0784 55.0599 56.7255C55.0599 57.3137 55.0794 57.902 54.8845 58.4706C54.5338 59.4314 53.8517 59.9804 52.8383 59.9804C47.8105 60 42.7826 60 37.7353 59.9804C36.3516 59.9804 35.5916 59.0588 35.5916 57.4902C35.5721 53.5098 35.5916 49.5098 35.5916 45.5294C35.5916 44.8039 35.5721 44.098 35.5916 43.3726C35.5916 42.8039 35.3577 42.5294 34.7731 42.5294C32.4735 42.5294 30.1545 42.549 27.8549 42.5294C27.0364 42.5294 27.017 43.0392 27.017 43.6471C27.017 48.098 27.017 52.5294 27.017 56.9804C27.017 59.3726 26.3739 60 24.0158 60C19.4752 60 14.9345 60 10.3744 60C8.34763 60 7.54863 59.1961 7.54863 57.1373C7.49017 53.2941 7.50965 49.451 7.50965 45.5882Z" fill="white"/>
<path d="M48.5902 3.70588C50.3441 3.70588 52.098 3.68627 53.8519 3.70588C55.5863 3.72549 56.2684 4.41176 56.2684 6.15686C56.2684 9.43137 56.2684 12.6863 56.2684 15.9608C56.2684 16.2157 56.3464 16.5294 56.0735 16.6667C55.7812 16.8235 55.6058 16.5294 55.4304 16.3725C51.2211 12.5294 47.0117 8.70588 42.8218 4.86274C42.7828 4.82353 42.7244 4.78431 42.6854 4.72549C42.4905 4.49019 42.0618 4.31372 42.1982 3.96078C42.3346 3.58823 42.7633 3.72549 43.0557 3.72549C44.6537 3.70588 46.2322 3.72549 47.8302 3.72549C48.064 3.70588 48.3174 3.70588 48.5902 3.70588Z" fill="white"/>
</svg>
