<svg width="240" height="262" viewBox="0 0 240 262" fill="none" xmlns="http://www.w3.org/2000/svg">
<path d="M28.7345 105.779L24.1191 105.482H22.4814L28.8834 101.922L29.0323 100.587L20.8437 100.29V101.477L25.1613 101.625H26.6501V101.773L20.6948 105.186L20.5459 106.669L28.7345 106.966V105.779Z" fill="white"/>
<path d="M29.1811 98.2129L27.2457 97.1744L27.6923 93.9105L29.7767 93.4655L29.9256 92.1302L21.4392 94.0589L21.2903 95.5425L29.0323 99.6965L29.1811 98.2129ZM26.2035 96.581L22.928 94.949L23.9702 94.8007L26.5012 94.2073L26.2035 96.581Z" fill="white"/>
<path d="M23.6725 88.718L30.5211 90.0532L30.8189 88.8664L23.9702 87.5312L24.4169 85.3058L23.2258 85.0091L22.0347 90.6467L23.2258 90.9434L23.6725 88.718Z" fill="white"/>
<path d="M23.9419 82.1084L23.6043 83.4005L31.5283 85.4567L31.866 84.1646L23.9419 82.1084Z" fill="white"/>
<path d="M33.7965 76.701C33.6476 75.9592 33.3499 75.3658 32.7543 74.7724C32.3077 74.1789 31.5633 73.8822 30.8189 73.5855C30.0744 73.2888 29.33 73.2888 28.5856 73.4371C27.8412 73.5855 27.2457 73.8822 26.6501 74.3273C26.0546 74.7724 25.6079 75.3658 25.4591 76.1076C25.1613 76.8494 25.1613 77.5912 25.3102 78.333C25.4591 79.0747 25.7568 79.6682 26.3524 80.2616C26.799 80.855 27.5434 81.1518 28.139 81.4485C28.8834 81.7452 29.6278 81.7452 30.3722 81.5968C31.1166 81.4485 31.7122 81.1518 32.3077 80.7067C32.9032 80.2616 33.201 79.6682 33.4988 78.9264C33.9454 78.1846 33.9454 77.4428 33.7965 76.701ZM32.4566 78.6297C32.3077 79.0747 32.0099 79.5198 31.5633 79.9649C31.1166 80.2616 30.67 80.5583 30.2233 80.5583C29.7767 80.7067 29.1811 80.5583 28.5856 80.41C27.9901 80.2616 27.5434 79.9649 27.2457 79.5198C26.9479 79.0747 26.6501 78.6297 26.5012 78.1846C26.3524 77.7395 26.5012 77.1461 26.6501 76.701C26.799 76.2559 27.0968 75.8109 27.5434 75.3658C27.9901 75.0691 28.4367 74.7724 28.8834 74.7724C29.33 74.624 29.9256 74.7724 30.5211 74.9207C31.1166 75.0691 31.5633 75.3658 31.861 75.8109C32.1588 76.2559 32.4566 76.701 32.6055 77.1461C32.7543 77.5912 32.6055 78.0362 32.4566 78.6297Z" fill="white"/>
<path d="M35.8809 72.547L31.5633 70.6183L30.2233 70.0249L37.3697 68.9864L37.9653 67.7996L30.5211 64.5357L30.0744 65.5742L33.9454 67.3545L35.4342 67.9479V68.0963L28.5856 68.9864L27.9901 70.3216L35.2854 73.5855L35.8809 72.547Z" fill="white"/>
<path d="M39.1563 65.5742L37.6675 63.9422L39.3052 61.1234L41.5385 61.4202L42.2829 60.2333L33.6476 58.8981L32.7543 60.2333L38.4119 66.761L39.1563 65.5742ZM35.1365 61.1234L34.3921 60.3817L35.4342 60.53L37.9653 60.9751L36.7742 63.0521L35.1365 61.1234Z" fill="white"/>
<path d="M45.4094 55.3375L44.3672 54.5957L42.4318 57.5629L36.6253 53.7056L35.8809 54.8924L42.7295 59.3432L45.4094 55.3375Z" fill="white"/>
<path d="M42.1716 45.9584L41.3476 47.0114L47.8051 52.0296L48.6291 50.9766L42.1716 45.9584Z" fill="white"/>
<path d="M50.6203 48.6614L45.8561 44.5074L53.1514 45.8426L53.8958 44.8041L47.9404 39.4632L47.0471 40.3533L50.3226 43.1721L51.5136 44.2106L44.665 43.0238L43.6228 44.2106L49.727 49.5515L50.6203 48.6614Z" fill="white"/>
<path d="M50.7692 39.3148C51.2159 39.7599 51.6625 39.9083 52.1092 39.9083C52.5558 39.9083 53.1514 39.7599 53.598 39.6116L54.0447 39.3148C54.6402 39.0181 55.0868 38.8698 55.3846 38.8698C55.6824 38.8698 55.9801 39.0181 56.2779 39.1665C56.5757 39.4632 56.5757 39.7599 56.5757 40.0566C56.5757 40.3533 56.2779 40.6501 56.129 40.9468C55.9802 41.3918 55.5335 41.5402 55.0868 41.5402C54.6402 41.5402 54.1935 41.3918 53.8958 41.2435L53.3003 42.4304C53.8958 42.7271 54.6402 42.8754 55.2357 42.8754C55.8313 42.7271 56.4268 42.5787 57.0223 41.9853C57.3201 41.6886 57.6179 41.2435 57.7667 40.9468C58.0645 40.5017 58.0645 40.0566 58.0645 39.6116C58.0645 39.1665 57.7667 38.7214 57.469 38.4247C57.0223 37.9796 56.5757 37.6829 55.9801 37.6829C55.3846 37.6829 54.7891 37.8313 54.1935 38.128L53.598 38.2763C53.1514 38.4247 52.7047 38.573 52.407 38.573C52.1092 38.573 51.8114 38.573 51.6625 38.2763C51.5136 38.128 51.3648 37.8313 51.3648 37.5345C51.3648 37.2378 51.5136 36.9411 51.8114 36.6444C52.1092 36.3477 52.407 36.1993 52.7047 36.1993C53.0025 36.1993 53.3003 36.1993 53.4491 36.3477L53.8958 35.1608C53.4491 35.0125 53.0025 34.8641 52.407 34.8641C51.8114 34.8641 51.3648 35.1608 50.7692 35.6059C50.4715 35.9026 50.1737 36.3477 50.0248 36.7928C49.8759 37.2378 49.8759 37.6829 49.8759 37.9796C50.3226 38.7214 50.4715 39.0181 50.7692 39.3148Z" fill="white"/>
<path d="M56.7246 32.7871L61.1911 37.9796L62.2332 37.2378L57.7667 31.8969L59.5533 30.4134L58.8089 29.5232L54.3424 33.2322L55.0868 34.1223L56.7246 32.7871Z" fill="white"/>
<path d="M61.1087 27.7086L60.0354 28.508L64.9379 35.0439L66.0112 34.2445L61.1087 27.7086Z" fill="white"/>
<path d="M65.062 26.5561L68.933 32.1937L69.9752 31.6002L66.1042 25.8143L68.0397 24.479L67.2953 23.5889L62.531 26.7044L63.1265 27.7429L65.062 26.5561Z" fill="white"/>
<path d="M72.3573 28.3364C72.804 28.6331 73.3995 28.7814 73.8462 28.7814C74.4417 28.7814 74.8883 28.6331 75.4839 28.3364C76.0794 28.0396 76.3772 27.5946 76.6749 27.1495C76.9727 26.7044 77.1216 26.111 76.9727 25.6659C76.9727 25.0725 76.8238 24.479 76.5261 24.034L74.1439 19.7316L72.9529 20.325L75.4839 24.7758C75.7816 25.3692 75.9305 25.8143 75.7816 26.2593C75.6328 26.7044 75.335 27.1495 74.8883 27.4462C74.4417 27.7429 73.8462 27.7429 73.3995 27.5946C72.9529 27.4462 72.5062 27.1495 72.2084 26.5561L69.6774 22.1053L68.6352 22.6988L71.0174 27.0011C71.464 27.5946 71.9107 28.0396 72.3573 28.3364Z" fill="white"/>
<path d="M78.3127 18.9898L81.1414 25.2208L82.3325 24.7758L79.3548 18.5447L81.4392 17.5062L80.9926 16.4677L75.6328 18.8414L76.2283 20.0283L78.3127 18.9898Z" fill="white"/>
<path d="M90.0744 21.6602L89.7767 20.4734L86.3524 21.8086L85.4591 19.7316L88.5856 18.5447L88.139 17.3579L85.0124 18.5447L84.268 16.4677L87.6923 15.1325L87.2457 13.9456L82.6303 15.7259L85.4591 23.2922L90.0744 21.6602Z" fill="white"/>
<path d="M93.6476 18.3964C94.0943 18.9898 94.8387 19.2865 95.4342 19.4349C96.1787 19.5832 96.9231 19.5832 97.6675 19.4349C98.4119 19.2865 99.0074 18.8414 99.603 18.3964C100.199 17.8029 100.496 17.2095 100.645 16.4677C100.794 15.7259 100.794 14.9841 100.645 14.2424C100.496 13.5006 100.05 12.9071 99.603 12.3137C99.1563 11.7203 98.4119 11.4236 97.8164 11.2752C97.0719 11.1268 96.3275 11.1268 95.5831 11.2752C94.8387 11.4236 94.2432 11.8686 93.6476 12.3137C93.0521 12.9071 92.7543 13.5006 92.6055 14.2424C92.4566 14.9841 92.4566 15.7259 92.6055 16.4677C92.7543 17.2095 93.201 17.8029 93.6476 18.3964ZM93.7965 14.5391C93.9454 14.094 94.2432 13.6489 94.5409 13.2039C94.8387 12.9071 95.2854 12.6104 95.8809 12.4621C96.4764 12.3137 96.9231 12.3137 97.3697 12.4621C97.8164 12.6104 98.263 12.9071 98.7097 13.2039C99.0074 13.6489 99.3052 14.094 99.4541 14.6874C99.603 15.2809 99.603 15.7259 99.4541 16.3194C99.3052 16.7644 99.0074 17.2095 98.7097 17.6546C98.4119 17.9513 97.9653 18.248 97.3697 18.3964C96.7742 18.5447 96.3275 18.5447 95.8809 18.3964C95.4342 18.248 94.9876 17.9513 94.5409 17.6546C94.2432 17.2095 93.9454 16.7644 93.7965 16.171C93.6476 15.5776 93.6476 14.9841 93.7965 14.5391Z" fill="white"/>
<path d="M104.516 17.9513L103.921 14.5391L107.196 14.094L106.898 12.9071L103.772 13.3522L103.325 11.1268L106.898 10.5334L106.749 9.34655L101.836 10.0883L103.176 18.0997L104.516 17.9513Z" fill="white"/>
<path d="M112.854 9.93998L113.449 16.7644H114.64L114.194 9.79162L116.427 9.64326V8.4564L110.62 8.90147V10.0883L112.854 9.93998Z" fill="white"/>
<path d="M123.127 15.2809H119.404V13.0555H122.68V11.8686H119.404V9.64326H123.127V8.4564H118.213V16.4677H123.127V15.2809Z" fill="white"/>
<path d="M126.104 16.3194C126.7 16.7644 127.444 16.9128 128.189 17.0612C128.784 17.0612 129.529 17.0612 129.975 16.7644C130.571 16.6161 131.017 16.171 131.464 15.8743L130.72 14.8358C129.975 15.5776 129.231 15.8743 128.337 15.7259C127.742 15.7259 127.295 15.5776 126.849 15.2809C126.402 14.9841 126.104 14.6874 125.806 14.094C125.509 13.6489 125.509 13.0555 125.509 12.4621C125.509 11.8686 125.806 11.2752 126.104 10.9785C126.402 10.5334 126.849 10.2367 127.295 9.93998C127.742 9.79162 128.337 9.64326 128.784 9.64326C129.231 9.64326 129.677 9.79162 129.975 9.93998C130.273 10.0883 130.571 10.385 130.868 10.6818L131.911 9.93998C131.613 9.4949 131.166 9.04983 130.72 8.90147C130.273 8.60476 129.677 8.4564 129.082 8.4564C128.337 8.4564 127.593 8.4564 126.849 8.90147C126.104 9.34655 125.509 9.79162 125.062 10.3851C124.615 10.9785 124.466 11.7203 124.318 12.4621C124.169 13.2038 124.318 13.9456 124.764 14.6874C125.062 15.2809 125.509 15.8743 126.104 16.3194Z" fill="white"/>
<path d="M134.739 14.094L138.462 14.6874L137.866 18.248L139.057 18.3964L140.397 10.385L139.206 10.2367L138.61 13.5006L134.888 12.9071L135.484 9.4949L134.293 9.34655L132.804 17.3579L134.144 17.5062L134.739 14.094Z" fill="white"/>
<path d="M143.375 14.6874L143.672 13.2038L145.757 20.1767L147.097 20.4734L149.181 12.6104L147.99 12.3137L146.799 16.4677L146.501 18.0997L146.352 17.9513L144.417 11.4236L142.928 10.9785L140.844 18.8414L142.035 19.1382L143.375 14.6874Z" fill="white"/>
<path d="M150.372 21.2152C150.819 21.8086 151.414 22.2537 152.159 22.5504C152.903 22.8471 153.648 22.8471 154.392 22.8471C155.136 22.6988 155.732 22.402 156.328 21.957C156.923 21.5119 157.37 20.9185 157.667 20.1767C157.965 19.4349 157.965 18.6931 157.965 17.9513C157.816 17.2095 157.519 16.6161 157.072 16.0226C156.625 15.4292 156.03 14.9841 155.285 14.6874C154.541 14.3907 153.797 14.3907 153.052 14.5391C152.308 14.6874 151.712 14.9841 151.117 15.4292C150.521 15.8743 150.074 16.4677 149.777 17.2095C149.479 17.9513 149.479 18.6931 149.479 19.4349C149.628 20.0283 149.926 20.6217 150.372 21.2152ZM150.968 17.5062C151.117 16.9128 151.414 16.4677 151.861 16.171C152.308 15.8743 152.754 15.5776 153.201 15.5776C153.648 15.4292 154.243 15.5776 154.69 15.7259C155.136 15.8743 155.583 16.171 155.881 16.6161C156.179 17.0612 156.476 17.5062 156.476 17.9513C156.625 18.3964 156.476 18.9898 156.328 19.5832C156.179 20.1767 155.881 20.6217 155.434 20.9185C154.988 21.2152 154.541 21.5119 154.094 21.5119C153.648 21.6602 153.052 21.5119 152.605 21.3635C152.159 21.2152 151.712 20.9185 151.414 20.4734C151.117 20.0283 150.819 19.5832 150.819 19.1382C150.67 18.5447 150.819 18.0997 150.968 17.5062Z" fill="white"/>
<path d="M161.836 26.4077L162.283 25.3692L159.156 23.8856L162.134 17.6546L160.943 17.0612L157.519 24.479L161.836 26.4077Z" fill="white"/>
<path d="M166.005 28.9298C166.749 29.3749 167.345 29.5232 168.089 29.5232C168.834 29.5232 169.578 29.3749 170.174 28.9298C170.769 28.4847 171.365 28.0396 171.663 27.2978C172.109 26.5561 172.258 25.9626 172.258 25.2208C172.258 24.479 172.109 23.7373 171.663 23.1438C171.365 22.5504 170.769 21.957 170.025 21.5119C169.28 21.0668 168.685 20.9185 167.94 20.9185C167.196 20.9185 166.452 21.0668 165.856 21.5119C165.261 21.957 164.665 22.402 164.367 23.1438C163.921 23.8856 163.772 24.479 163.772 25.2208C163.772 25.9626 163.921 26.7044 164.367 27.2978C164.814 28.0396 165.261 28.6331 166.005 28.9298ZM165.558 23.8856C165.856 23.4405 166.303 22.9955 166.749 22.6988C167.196 22.402 167.643 22.2537 168.238 22.2537C168.685 22.2537 169.28 22.402 169.727 22.6988C170.174 22.9955 170.62 23.2922 170.769 23.7373C171.067 24.1823 171.216 24.6274 171.216 25.2208C171.216 25.8143 171.067 26.2593 170.769 26.7044C170.471 27.1495 170.174 27.5946 169.578 27.8913C169.132 28.188 168.685 28.3364 168.089 28.3364C167.643 28.3364 167.047 28.188 166.6 27.8913C166.154 27.5946 165.707 27.2978 165.558 26.8528C165.261 26.4077 165.112 25.9626 165.112 25.3692C165.112 24.9241 165.261 24.3307 165.558 23.8856Z" fill="white"/>
<path d="M172.407 32.342C172.705 33.0838 173.151 33.5289 173.747 33.974C174.789 34.7157 175.831 35.0125 176.873 34.7157C177.32 34.5674 177.767 34.419 178.213 34.1223C178.66 33.8256 178.958 33.5289 179.256 33.0838C179.404 32.9354 179.553 32.6387 179.553 32.4904L176.278 30.1166L175.682 31.0068L177.916 32.6387C177.767 32.7871 177.469 33.0838 177.32 33.2322C177.022 33.3805 176.873 33.3805 176.576 33.5289C176.278 33.5289 175.831 33.5289 175.533 33.5289C175.236 33.5289 174.789 33.2322 174.491 32.9354C174.045 32.6387 173.747 32.1937 173.449 31.7486C173.3 31.3035 173.151 30.7101 173.151 30.265C173.151 29.8199 173.449 29.2265 173.747 28.7814C174.045 28.3364 174.491 27.8913 174.938 27.7429C175.385 27.5946 175.98 27.4462 176.427 27.4462C176.873 27.4462 177.469 27.7429 177.767 28.0396C178.064 28.3364 178.362 28.6331 178.66 28.9298C178.809 29.2265 178.958 29.6716 178.958 29.9683L180.149 29.8199C180.149 29.2265 179.851 28.7814 179.553 28.3364C179.256 27.8913 178.809 27.4462 178.362 27.0011C177.767 26.5561 177.022 26.2593 176.278 26.2593C175.533 26.111 174.789 26.2593 174.194 26.5561C173.449 26.8528 172.854 27.2978 172.407 28.0396C171.96 28.6331 171.663 29.3749 171.663 30.1166C171.96 31.0068 172.109 31.6002 172.407 32.342Z" fill="white"/>
<path d="M180.447 39.0181L182.829 36.1993L187.742 34.5674L186.551 33.5289L183.275 34.7157L183.871 31.1552L182.68 30.265L181.935 35.3092L179.404 38.128L180.447 39.0181Z" fill="white"/>
<path d="M186.104 44.359L188.486 42.1336L189.082 42.8754L188.189 46.5844L189.231 47.6229L189.975 43.7656C190.422 44.0623 191.017 44.2106 191.464 44.2106C192.06 44.2106 192.506 43.9139 192.953 43.6172C193.251 43.3205 193.548 42.8754 193.697 42.4304C193.846 41.9853 193.846 41.5402 193.697 41.0951C193.548 40.6501 193.4 40.205 192.953 39.9083L191.017 37.8313L185.062 43.3205L186.104 44.359ZM191.166 39.6116L192.208 40.7984C192.357 40.9468 192.506 41.2435 192.506 41.3918C192.506 41.6886 192.506 41.8369 192.506 41.9853C192.506 42.1336 192.357 42.4304 192.208 42.5787C191.911 42.8754 191.613 43.0238 191.315 42.8754C191.017 42.8754 190.72 42.7271 190.422 42.4304L189.38 41.2435L191.166 39.6116Z" fill="white"/>
<path d="M190.273 48.9581L192.357 48.2163L194.442 50.7384L193.251 52.667L194.144 53.7056L198.61 46.2877L197.717 45.1008L189.38 47.7712L190.273 48.9581ZM196.079 47.0294L196.973 46.7327L196.377 47.6229L195.037 49.8482L193.548 47.9196L196.079 47.0294Z" fill="white"/>
<path d="M201.462 49.9611L194.763 54.6521L195.533 55.7445L202.233 51.0535L201.462 49.9611Z" fill="white"/>
<path d="M197.27 58.453L199.95 56.8211L200.695 58.1563C200.993 58.6014 201.29 58.8981 201.737 59.0464C202.184 59.3431 202.481 59.3432 202.928 59.3432C203.375 59.3432 203.821 59.1948 204.268 58.8981C204.715 58.6014 205.012 58.3046 205.161 57.8596C205.31 57.4145 205.459 56.9694 205.459 56.5243C205.459 56.0793 205.31 55.6342 205.012 55.1891L203.524 52.8154L196.675 57.1178L197.27 58.453ZM203.077 54.7441L203.97 56.0793C204.119 56.376 204.268 56.5243 204.268 56.8211C204.268 57.1178 204.268 57.2661 204.119 57.4145C203.97 57.5629 203.821 57.7112 203.672 57.8596C203.524 58.0079 203.226 58.0079 203.077 58.0079C202.779 58.0079 202.63 58.0079 202.481 57.8596C202.333 57.7112 202.035 57.5629 201.886 57.4145L200.993 56.0793L203.077 54.7441Z" fill="white"/>
<path d="M201.439 62.607C201.141 63.0521 200.993 63.4972 200.844 64.0906C200.844 64.684 200.993 65.1291 201.29 65.7225C201.588 66.316 201.886 66.761 202.481 66.9094C203.077 67.0578 203.375 67.3545 203.97 67.3545C204.566 67.3545 205.161 67.2061 205.608 66.9094L210.074 64.684L209.479 63.4972L205.012 65.8709C204.417 66.1676 203.97 66.1676 203.524 66.1676C203.077 66.0192 202.63 65.7225 202.481 65.2775C202.184 64.8324 202.184 64.239 202.332 63.7939C202.481 63.3488 202.928 63.0521 203.375 62.7554L207.841 60.3817L207.246 59.1948L202.779 61.4202C202.184 61.8652 201.737 62.1619 201.439 62.607Z" fill="white"/>
<path d="M204.119 71.0634L207.097 69.8766L207.395 70.7667L205.31 74.0306L205.906 75.3658L207.99 72.1019C208.288 72.547 208.735 72.8437 209.33 72.9921C209.926 73.1404 210.372 73.1404 210.819 72.8437C211.266 72.6954 211.563 72.3986 211.861 72.1019C212.159 71.8052 212.308 71.3601 212.308 70.9151C212.308 70.47 212.308 70.0249 212.159 69.5798L211.117 66.9094L203.672 70.0249L204.119 71.0634ZM210.521 68.393L211.117 69.8766C211.266 70.1733 211.266 70.3216 211.266 70.6183C211.266 70.9151 211.117 71.0634 210.968 71.2118C210.819 71.3601 210.67 71.5085 210.521 71.6569C210.223 71.8052 209.777 71.8052 209.479 71.6569C209.181 71.5085 208.883 71.2118 208.734 70.9151L208.139 69.4315L210.521 68.393Z" fill="white"/>
<path d="M214.899 76.5187L207.092 78.9797L207.496 80.2526L215.303 77.7917L214.899 76.5187Z" fill="white"/>
<path d="M208.437 83.2288L212.903 82.0419L214.392 81.5968L209.33 86.7894L209.628 88.1246L217.519 86.0476L217.221 84.8607L213.052 86.0476L211.563 86.4926V86.3443L216.328 81.4485L216.03 79.9649L208.139 81.8935L208.437 83.2288Z" fill="white"/>
<path d="M210.521 92.427C210.67 93.3171 210.968 93.9105 211.414 94.504C211.861 95.0974 212.457 95.3941 213.052 95.6908C213.648 95.9875 214.392 95.9875 215.285 95.8392C216.03 95.6908 216.774 95.3941 217.221 94.949C217.816 94.504 218.114 93.9105 218.412 93.3171C218.71 92.5753 218.71 91.8335 218.561 91.0917L218.114 88.5696L210.074 89.9049L210.521 92.427ZM217.072 90.0532L217.221 91.3885C217.37 92.2786 217.221 93.0204 216.774 93.6138C216.328 94.2073 215.732 94.504 214.839 94.6523C213.945 94.8007 213.201 94.6523 212.605 94.2073C212.01 93.7622 211.712 93.1687 211.563 92.2786L211.414 90.9434L217.072 90.0532Z" fill="white"/>
<path d="M219.362 97.2147L211.215 98.0279L211.348 99.3564L219.496 98.5432L219.362 97.2147Z" fill="white"/>
<path d="M211.563 101.773L213.648 102.367L213.797 105.631L211.712 106.373V107.708L219.752 104.296V102.812L211.563 100.142V101.773ZM217.37 103.702L218.263 103.999L217.37 104.296L214.988 105.186L214.839 102.812L217.37 103.702Z" fill="white"/>
<path d="M35.732 163.194L35.2854 164.529L37.9653 165.716L37.3697 167.644L38.7097 168.089L39.3052 165.419L38.7097 164.826L35.732 163.194Z" fill="white"/>
<path d="M48.6849 167.051L49.5782 168.238C49.4293 168.535 49.2804 168.831 49.1315 168.98C48.8337 169.276 48.6849 169.276 48.3871 169.276C48.0893 169.276 47.7916 169.128 47.3449 168.831C46.7494 169.573 46.4516 170.315 46.4516 171.057C46.4516 171.798 46.6005 172.392 47.196 172.985C47.4938 173.282 47.6427 173.43 47.9404 173.727C48.2382 173.875 48.536 174.024 48.8337 174.172L47.4938 175.359L48.536 176.546L53.1514 172.392L53.8958 173.282L54.938 172.392L49.7271 166.606L48.9826 165.567C49.7271 164.529 50.0248 163.787 50.1737 163.045C50.3226 162.304 50.0248 161.562 49.5782 160.968C49.1315 160.375 48.6849 160.078 48.0893 159.93C47.4938 159.781 47.0471 159.93 46.6005 160.375C46.3027 160.672 46.005 160.968 45.8561 161.413L43.1762 157.704L41.2407 154.441L38.7097 149.693L37.5186 150.287L39.0074 152.809C38.8586 152.957 38.7097 153.105 38.4119 153.254C37.9653 153.55 37.5186 153.55 37.072 153.254C37.2208 152.809 37.2208 152.512 36.9231 152.067C36.7742 151.77 36.6253 151.622 36.3275 151.622C36.0298 151.622 35.8809 151.622 35.5831 151.77C35.4342 151.918 35.2854 151.918 35.1365 152.067C34.9876 152.215 34.8387 152.512 34.6898 152.809C34.5409 153.105 34.3921 153.699 34.0943 154.441C33.9454 155.182 33.6476 156.072 33.4988 156.963L34.9876 157.408C35.1365 156.369 35.4342 155.331 35.732 154.292C36.3275 154.737 36.7742 155.034 37.2208 155.182C37.6675 155.331 38.263 155.182 38.7097 154.886C39.0074 154.737 39.3052 154.589 39.4541 154.292L39.9007 155.182L40.3474 155.924L34.9876 159.188L35.8809 160.523L41.2407 157.259L41.8362 158.149L42.2829 158.891L41.3896 159.485C40.9429 159.781 40.6452 160.078 40.4963 160.227C40.3474 160.523 40.1985 160.672 40.1985 160.968C39.7519 160.82 39.3052 160.968 38.8586 161.265C38.263 161.71 37.9653 162.155 38.1141 162.897C38.1141 163.639 38.4119 164.381 39.0074 165.122C39.603 166.012 40.3474 166.606 41.0918 167.051L41.8362 165.864C41.5385 165.567 41.0918 165.419 40.9429 165.122C40.6452 164.826 40.4963 164.529 40.1985 164.232C39.9007 163.787 39.603 163.342 39.603 163.045C39.603 162.749 39.603 162.452 39.9007 162.304C40.0496 162.155 40.1985 162.155 40.3474 162.155C40.4963 162.155 40.6452 162.303 40.9429 162.452C41.0918 162.6 41.3896 162.897 41.6873 163.342L42.2829 164.232L43.9206 164.529L45.7072 163.342L46.3027 164.232L46.8983 164.974L41.9851 168.831L43.0273 170.166L47.9404 166.309L48.6849 167.051ZM50.6203 169.425L51.9603 170.908L49.8759 172.689C49.4293 172.689 49.1315 172.689 48.8337 172.54C48.536 172.392 48.2382 172.243 48.0893 171.947C47.9404 171.65 47.7916 171.502 47.7916 171.205C47.7916 170.908 47.7916 170.612 47.9404 170.463C48.3871 170.612 48.6849 170.76 48.9826 170.76C49.2804 170.76 49.5782 170.612 49.8759 170.315C50.3226 170.166 50.4715 169.721 50.6203 169.425ZM47.3449 161.413C47.4938 161.265 47.7916 161.117 47.9404 161.265C48.0893 161.265 48.3871 161.413 48.536 161.562C48.8337 161.858 48.8337 162.155 48.8337 162.6C48.6849 163.045 48.536 163.49 48.0893 164.084L47.4938 163.342L46.7494 162.304C46.7494 162.007 47.0471 161.71 47.3449 161.413ZM42.5806 162.6L42.4318 162.304C42.134 162.007 41.9851 161.71 41.6873 161.413C41.6873 161.265 41.8362 161.117 41.8362 160.968C41.9851 160.82 42.134 160.672 42.4318 160.523L42.8784 160.227L42.5806 162.6ZM43.3251 163.045L43.6228 160.523L44.665 162.007L43.3251 163.045Z" fill="white"/>
<path d="M102.878 194.942C102.134 194.2 101.241 193.904 100.05 193.607C99.1563 193.459 98.4119 193.459 97.9653 193.755C97.3697 194.052 97.0719 194.497 96.9231 195.091C96.9231 195.387 96.9231 195.684 96.9231 196.129L92.9032 195.091L91.2655 194.497C90.8189 193.31 90.3722 192.272 89.7767 191.382C89.0322 190.492 88.1389 189.75 87.0968 189.305C86.2035 188.86 85.4591 188.86 84.8635 189.008C84.268 189.156 83.8213 189.453 83.5236 190.195C83.3747 190.491 83.3747 190.937 83.3747 191.53L82.4814 191.233L81.4392 190.788C81.5881 190.195 81.5881 189.601 81.5881 189.008C81.5881 188.563 81.5881 188.118 81.4392 187.821C81.2903 187.524 81.1414 187.228 80.9926 187.079C80.8437 186.931 80.5459 186.634 80.0993 186.486C79.6526 186.337 79.3548 186.189 78.9082 186.189L78.7593 187.524C79.0571 187.524 79.3548 187.673 79.6526 187.673C79.9504 187.821 80.2481 188.118 80.2481 188.414C80.2481 188.711 80.2481 189.305 80.0993 190.046L79.206 189.601V189.75L71.1663 185.151V185.002L70.1241 184.26C70.2729 183.519 70.5707 182.925 70.5707 182.48C70.5707 182.035 70.5707 181.59 70.5707 181.293C70.4218 180.997 70.4218 180.7 70.273 180.552C70.1241 180.403 69.8263 180.106 69.5285 179.958C69.2308 179.81 68.933 179.661 68.4864 179.513L68.1886 180.552C68.4864 180.552 68.7841 180.7 68.933 180.848C69.2308 180.997 69.3796 181.293 69.5285 181.59C69.5285 181.887 69.5285 182.332 69.5285 182.777C69.5285 182.48 69.3796 182.183 69.2308 181.887C69.0819 181.59 68.933 181.442 68.6352 181.293C68.3375 181.145 67.8908 180.997 67.4442 180.848L67.1464 181.887C67.593 181.887 67.8908 182.035 68.1886 182.183C68.3375 182.332 68.4863 182.48 68.6352 182.48C68.7841 182.629 68.7841 182.777 68.933 182.925C68.933 183.074 69.0819 183.222 69.0819 183.519L68.3375 183.074L62.3821 178.623L61.6377 179.661L62.2332 180.106L61.0422 181.738C60.5955 182.332 60.2978 182.925 60.2978 183.37C60.2978 183.815 60.4466 184.112 60.5955 184.557L58.6601 184.26V185.744L62.8288 186.189L61.6377 187.821L62.9777 188.86L66.6997 183.815L67.5931 184.557L68.3375 185.002L64.9131 190.195L66.2531 191.085L69.6774 185.892L70.5707 186.486V186.634L73.3995 188.266L73.1017 188.86L72.804 188.711C72.3573 188.414 72.0596 188.266 71.7618 188.266C71.464 188.118 71.3151 188.118 71.0174 188.118C70.7196 188.118 70.5707 188.266 70.4218 188.266C70.2729 188.414 70.1241 188.563 69.9752 188.86C69.6774 189.305 69.6774 189.898 69.8263 190.343C69.5285 190.492 69.3796 190.64 69.2308 190.937C68.933 191.53 68.933 191.975 69.2308 192.569C69.5285 193.162 69.9752 193.607 70.5707 193.904C71.6129 194.497 72.804 194.646 73.995 194.497L73.5484 195.387L75.0372 196.129L78.1638 190.64L79.206 191.233V191.085L79.9504 191.53L77.2705 197.168L78.7593 197.909L81.4392 192.272L82.4814 192.717L83.3747 193.014L80.9926 198.8L82.4814 199.393L84.8635 193.607L85.9057 194.052L87.2457 194.497L86.6501 196.277H86.5012C86.2035 196.129 86.0546 196.129 85.7568 196.277C85.6079 196.277 85.459 196.574 85.3102 196.723C85.1613 196.871 85.1613 197.168 85.3102 197.613C85.459 197.909 85.6079 198.206 85.7568 198.503C85.9057 198.8 86.2035 198.948 86.3524 199.096C86.6501 199.245 86.799 199.245 86.9479 199.096C87.0968 198.948 87.2457 198.8 87.3945 198.503L88.5856 195.239L90.3722 195.832L88.2878 201.767L89.7767 202.36L91.861 196.426L92.7543 196.723L97.2208 197.909L96.4764 200.877C95.8809 201.322 95.2853 201.322 94.6898 201.173C94.3921 201.173 94.2432 201.025 94.0943 200.728C93.9454 200.58 93.9454 200.283 93.9454 199.986C93.9454 199.69 94.0943 199.541 94.3921 199.393C94.6898 199.245 94.9876 199.245 95.2854 199.393C95.5831 199.541 95.8809 199.541 96.1786 199.69L96.6253 198.354C96.3275 198.206 96.0298 198.058 95.4342 197.909C94.6898 197.761 93.9454 197.761 93.4987 198.058C92.9032 198.354 92.6055 198.8 92.4566 199.393C92.3077 199.986 92.3077 200.58 92.7543 201.173C93.0521 201.618 93.6476 202.063 94.2432 202.212C94.5409 202.36 94.8387 202.36 95.1365 202.36C95.4342 202.36 95.732 202.36 96.0298 202.212L95.5831 203.695L97.2208 204.14L97.9653 201.173C98.4119 200.877 98.7097 200.877 99.0074 200.877C99.4541 201.025 99.603 201.322 99.4541 201.767C99.3052 202.212 99.0074 202.657 98.4119 203.102L99.603 204.289C99.9007 203.992 100.347 203.547 100.496 203.25C100.794 202.805 100.943 202.508 101.092 202.063C101.241 201.47 101.241 200.877 100.943 200.431C100.645 199.986 100.199 199.69 99.7519 199.541C99.3052 199.393 98.8586 199.393 98.4119 199.541L98.8586 197.909L102.73 198.948V198.8L103.623 198.948L102.581 205.031L104.218 205.327L105.261 199.245L106.452 199.393L106.749 198.058L105.558 197.909C104.367 196.574 103.772 195.684 102.878 194.942ZM63.4243 184.706C63.1265 184.706 62.8288 184.706 62.531 184.706C62.2333 184.706 62.0844 184.557 61.7866 184.409C61.6377 184.26 61.4888 184.112 61.34 183.964C61.34 183.815 61.34 183.667 61.34 183.519C61.34 183.37 61.4888 183.074 61.7866 182.777L62.9777 181.293L64.9131 182.777L63.4243 184.706ZM74.5906 192.569C73.6973 192.865 72.9529 192.865 72.5062 192.865C71.9107 192.865 71.464 192.717 71.0174 192.42C70.7196 192.272 70.5707 192.123 70.4218 191.827C70.2729 191.678 70.2729 191.382 70.4218 191.233C70.5707 191.085 70.7196 190.937 70.8685 190.937C71.1663 190.937 71.3151 191.085 71.7618 191.233C72.0596 191.382 72.3573 191.53 72.804 191.827L73.5484 190.788C73.2506 190.492 72.804 190.195 72.3573 189.898C71.9107 189.601 71.464 189.453 71.1663 189.453C71.1663 189.305 71.1663 189.156 71.1663 189.008C71.1663 188.86 71.3151 188.86 71.464 188.711C71.6129 188.711 71.6129 188.711 71.7618 188.711C71.9107 188.711 72.0595 188.86 72.2084 188.86L73.8461 189.898L74.7394 188.266L76.3772 189.156L74.5906 192.569ZM86.0546 192.717L84.8635 192.123C84.8635 191.827 84.8635 191.53 85.0124 191.233C85.1613 190.937 85.3102 190.788 85.7568 190.64C86.0546 190.64 86.5012 190.64 86.9479 190.788C87.5434 191.085 88.139 191.53 88.7345 192.123C89.1811 192.569 89.4789 193.31 89.7767 193.904L86.0546 192.717ZM102.581 197.464L98.7097 196.574C98.7097 196.277 98.5608 195.981 98.7097 195.832C98.7097 195.536 99.0074 195.239 99.1563 195.091C99.4541 194.942 99.7519 194.942 100.199 194.942C100.794 195.091 101.39 195.387 101.836 195.684C102.283 196.129 102.878 196.723 103.176 197.464H102.581Z" fill="white"/>
<path d="M122.233 196.723C122.084 196.871 121.935 197.168 121.935 197.316C121.935 197.613 122.084 197.761 122.233 197.909C122.382 198.058 122.68 198.206 122.829 198.206C123.127 198.206 123.275 198.058 123.424 197.909C123.573 197.761 123.722 197.464 123.722 197.316C123.722 197.019 123.573 196.871 123.424 196.723C123.275 196.574 122.978 196.426 122.829 196.426C122.68 196.426 122.382 196.574 122.233 196.723Z" fill="white"/>
<path d="M129.826 202.212C129.38 202.212 129.231 202.212 129.082 202.212C129.231 201.915 129.231 201.47 129.231 201.025C129.231 200.728 129.082 200.431 129.082 200.135L131.315 199.986L131.166 198.651L124.913 199.096H115.831V200.432H118.362C118.362 200.58 118.511 200.877 118.511 201.025C118.511 201.47 118.362 201.767 118.213 202.063C117.916 201.767 117.618 201.618 117.32 201.618C117.022 201.618 116.725 201.767 116.576 201.915C116.427 202.063 116.278 202.36 116.278 202.508C116.278 202.657 116.278 202.805 116.427 202.954C116.427 203.102 116.576 203.399 116.873 203.695C117.022 203.992 117.469 204.437 117.916 204.882C118.362 205.476 119.107 206.069 119.851 206.663L120.893 205.624C120 204.882 119.256 204.14 118.66 203.399C118.809 203.399 118.809 203.25 118.958 203.25C119.404 203.547 120.149 203.547 121.191 203.547H122.68V206.366H124.318V200.135H125.509V199.986L127.891 199.838C128.04 199.986 128.04 200.283 128.04 200.432C128.04 200.877 128.04 201.173 127.891 201.47C127.593 201.173 127.295 201.173 126.849 201.173C126.551 201.173 126.253 201.322 126.104 201.47C125.955 201.618 125.955 201.915 125.955 202.212C125.955 202.36 125.955 202.508 126.104 202.657C126.104 202.805 126.402 203.102 126.551 203.25C126.849 203.547 127.146 203.844 127.742 204.437C128.337 204.882 128.933 205.476 129.826 206.069L130.72 204.882C129.826 204.289 128.933 203.547 128.189 202.954C128.337 202.954 128.337 202.805 128.486 202.805C128.933 202.954 129.677 203.102 130.72 202.954L132.06 202.805L131.911 201.47L129.826 202.212ZM122.382 202.657H120.596C120.149 202.657 120 202.657 119.851 202.657C120 202.36 120.149 201.915 120.149 201.47C120.149 201.173 120.149 200.877 120 200.58H122.382V202.657Z" fill="white"/>
<path d="M150.968 195.536L150.521 194.2L143.226 196.426L139.504 197.316V197.464L136.228 198.058L136.377 199.393L137.122 199.245L137.568 201.915C137.27 202.212 137.122 202.508 136.824 202.657C136.526 202.805 136.228 202.954 135.782 202.954C135.484 202.954 135.335 202.954 135.037 202.954C134.888 202.954 134.591 202.805 134.442 202.657C134.888 202.36 135.335 201.915 135.633 201.47C135.931 201.025 135.931 200.58 135.782 199.986C135.633 199.393 135.335 198.8 134.888 198.503C134.442 198.206 133.846 198.058 133.102 198.206C132.506 198.354 132.06 198.503 131.762 198.8C131.464 199.096 131.315 199.541 131.464 199.986C131.613 200.431 131.762 200.728 132.06 201.025C132.357 201.322 132.804 201.322 133.399 201.322L133.548 200.283C133.251 200.283 133.102 200.283 132.953 200.283C132.804 200.283 132.655 200.135 132.655 199.986C132.655 199.838 132.655 199.69 132.804 199.69C132.953 199.541 132.953 199.541 133.102 199.541C133.4 199.541 133.548 199.541 133.697 199.69C133.846 199.838 133.995 199.986 133.995 200.283C134.144 200.728 133.995 201.173 133.697 201.47C133.4 201.767 132.953 202.063 132.357 202.36C132.655 203.25 133.251 203.844 133.697 204.14C134.293 204.437 134.888 204.586 135.633 204.437C136.079 204.437 136.377 204.289 136.824 204.14C137.122 203.992 137.419 203.844 137.568 203.695L137.866 205.476L139.504 205.179L138.462 198.948L139.653 198.8V198.651L140.546 198.503L142.035 204.585L143.672 204.14L142.184 198.058L143.226 197.761L147.99 196.277L148.437 197.909L144.864 198.948C144.566 199.096 144.417 199.096 144.268 199.245C144.119 199.393 144.119 199.69 144.268 199.838C144.268 200.135 144.566 200.283 144.715 200.432C145.012 200.58 145.31 200.877 145.608 200.877C145.906 201.025 146.203 201.025 146.501 200.877C146.799 200.728 146.948 200.728 146.948 200.432C147.097 200.283 147.097 199.986 146.948 199.69L146.799 199.393L148.586 198.8L149.479 201.915L151.117 201.47L149.33 195.536H150.968Z" fill="white"/>
<path d="M184.764 179.216C185.062 178.623 185.211 178.029 185.211 177.584C185.211 177.139 185.062 176.546 184.615 176.249C184.318 175.952 184.169 175.804 183.871 175.656L184.615 175.062L183.722 174.024L179.553 177.733L173.598 182.332L167.196 186.486L163.921 188.415L159.156 190.788L159.752 191.975L162.432 190.64C162.581 190.788 162.73 190.937 162.73 191.233C162.878 191.678 162.878 192.123 162.73 192.569C162.283 192.42 161.985 192.42 161.538 192.569C161.241 192.717 161.092 192.865 160.943 193.162C160.943 193.459 160.943 193.607 160.943 193.904C160.943 194.052 161.092 194.2 161.241 194.349C161.39 194.497 161.538 194.646 161.985 194.794C162.283 194.942 162.878 195.091 163.623 195.387C164.367 195.684 165.261 195.832 166.154 196.129L166.6 194.646C165.558 194.497 164.516 194.2 163.474 193.904C163.921 193.459 164.218 192.865 164.367 192.42C164.516 191.975 164.367 191.382 164.218 190.937C164.069 190.64 163.921 190.343 163.623 190.195L164.516 189.75L165.261 189.305L168.387 194.794L169.876 194.052L166.749 188.563L167.643 187.969L168.834 187.228C169.132 187.376 169.28 187.524 169.429 187.821C169.578 188.118 169.727 188.414 169.578 188.711C169.429 189.008 169.28 189.305 168.983 189.601C169.578 190.343 170.323 190.788 171.067 190.937C171.811 191.085 172.407 190.937 173.002 190.491C173.3 190.343 173.598 190.046 173.747 189.898C173.896 189.601 174.194 189.453 174.194 189.156L175.236 190.64L176.576 189.75L173.151 184.557L174.045 183.964L174.64 183.519L175.831 185.151C176.129 185.596 176.427 185.892 176.725 186.041C177.022 186.189 177.32 186.337 177.618 186.337C177.916 186.337 178.213 186.337 178.511 186.337C178.809 186.189 179.107 186.041 179.404 185.892C179.702 185.596 180 185.447 180.149 185.151C180.298 185.002 180.447 184.706 180.596 184.409L181.638 185.744C181.489 185.892 181.489 186.041 181.34 186.041L182.382 186.634C182.531 186.337 182.68 186.041 182.978 185.892C183.127 185.744 183.275 185.596 183.424 185.596C183.573 185.596 183.722 185.596 183.871 185.744C184.02 185.892 184.02 186.041 184.02 186.189C184.02 186.337 183.871 186.486 183.573 186.783C183.127 187.079 182.829 187.228 182.233 187.376C181.787 187.524 181.191 187.376 180.447 187.376L180.149 188.711C181.191 188.86 181.935 188.86 182.68 188.711C183.424 188.563 184.02 188.266 184.615 187.673C185.211 187.228 185.509 186.783 185.509 186.189C185.658 185.744 185.509 185.299 185.062 184.854C184.764 184.409 184.318 184.26 183.722 184.26C183.424 184.26 183.127 184.409 182.829 184.557L179.107 179.81L180 179.068L182.084 177.139C182.233 177.288 182.382 177.436 182.531 177.584C182.829 177.881 182.978 178.326 182.829 178.92C182.382 178.92 182.084 179.068 181.787 179.216C181.489 179.365 181.489 179.661 181.489 179.958C181.489 180.255 181.489 180.403 181.787 180.552C181.935 180.7 182.084 180.7 182.233 180.848C182.382 180.997 182.68 180.997 182.978 181.145C183.275 181.145 183.871 181.293 184.764 181.293C185.509 181.293 186.402 181.293 187.444 181.293V179.81C186.998 179.216 185.955 179.365 184.764 179.216ZM173.896 187.079C173.896 187.376 173.747 187.821 173.598 188.118C173.449 188.415 173.151 188.563 172.854 188.86C172.556 189.008 172.258 189.156 172.109 189.156C171.811 189.156 171.663 189.008 171.365 188.86C171.663 188.563 171.811 188.118 171.811 187.821C171.811 187.524 171.811 187.228 171.514 186.783C171.365 186.486 171.067 186.189 170.62 186.041L172.407 184.854L173.896 187.079ZM180.149 182.332C180.149 182.629 180 182.925 179.851 183.222C179.702 183.519 179.553 183.667 179.404 183.815C179.256 183.964 178.958 184.112 178.809 184.112C178.66 184.112 178.511 184.112 178.362 183.964C178.213 183.815 178.065 183.667 177.767 183.37L176.576 181.887L178.511 180.403L180.149 182.332Z" fill="white"/>
<path d="M205.608 145.539L204.417 144.946L200.993 151.77L198.164 156.369L196.079 159.485H196.228L193.846 162.452L194.888 163.342L195.633 162.304L197.419 163.639L196.228 165.271L195.186 164.529C194.739 164.232 194.442 163.935 193.995 163.935C193.697 163.787 193.251 163.935 192.953 164.084C192.506 164.232 192.208 164.529 191.762 164.974C191.464 165.419 191.315 165.864 191.315 166.309C191.315 166.754 191.464 167.051 191.911 167.348C192.357 167.644 192.804 167.793 193.251 167.644C193.697 167.496 194.144 167.199 194.591 166.754L193.697 166.012C193.548 166.309 193.251 166.458 193.102 166.458C192.953 166.606 192.804 166.458 192.655 166.458C192.506 166.309 192.506 166.309 192.506 166.161C192.506 166.012 192.506 165.864 192.655 165.716C192.804 165.567 192.953 165.419 193.251 165.419C193.548 165.419 193.846 165.567 194.144 165.864L195.186 166.606L195.037 166.754C194.888 167.051 194.739 167.199 194.739 167.348C194.739 167.496 194.888 167.644 195.037 167.793C195.186 167.941 195.484 167.941 195.782 168.089C196.079 168.089 196.526 168.089 196.824 167.941C197.122 167.793 197.419 167.644 197.568 167.496C197.717 167.199 197.866 167.051 197.717 166.903C197.717 166.754 197.568 166.458 197.27 166.309L197.122 166.161L198.313 164.529L200.397 166.161L201.439 164.826L196.526 160.968L197.27 160.078H197.122L197.568 159.336L202.779 162.749L203.672 161.413L198.462 158.001L199.057 157.111L200.546 154.589C200.695 154.589 200.993 154.737 201.141 154.886C201.588 155.182 201.737 155.479 201.737 156.072C201.29 156.221 200.993 156.369 200.844 156.666C200.695 156.963 200.695 157.111 200.695 157.408C200.695 157.704 200.844 157.853 201.141 158.001C201.29 158.149 201.439 158.149 201.588 158.149C201.737 158.149 202.035 158.149 202.481 158.149C202.928 158.149 203.375 158.001 204.119 157.704C204.864 157.556 205.757 157.259 206.65 156.963L206.203 155.479C205.31 155.924 204.268 156.221 203.226 156.518C203.375 155.776 203.375 155.182 203.226 154.737C203.077 154.292 202.779 153.847 202.332 153.55C202.035 153.402 201.737 153.254 201.439 153.254L201.886 152.512L204.119 148.061L205.31 148.655L204.566 150.138C204.268 150.732 204.119 151.325 203.97 151.622C203.97 152.067 203.97 152.364 204.119 152.809C204.268 153.105 204.566 153.402 205.012 153.699C205.459 153.995 206.055 153.995 206.65 153.995C207.246 153.995 207.99 153.699 208.883 153.254L208.437 151.77C207.841 152.067 207.395 152.215 207.097 152.364C206.65 152.512 206.352 152.364 206.203 152.364C206.055 152.215 205.906 152.067 205.757 151.918C205.757 151.77 205.757 151.473 205.757 151.325C205.757 151.028 205.906 150.732 206.203 150.287L206.65 149.248L209.926 150.88L210.67 149.396L205.012 146.578L205.608 145.539Z" fill="white"/>
<path d="M120 215.267C179.553 215.267 227.94 167.051 227.94 107.708C227.94 105.779 227.94 103.999 227.792 102.219C224.963 45.3975 177.618 0 120 0C60.4466 0 11.9107 48.2163 11.9107 107.559C11.9107 124.324 15.7816 140.05 22.6303 154.144C40.0496 190.343 77.1216 215.267 120 215.267ZM13.1017 107.708C13.1017 48.9581 61.0422 1.33522 120 1.33522C162.283 1.33522 198.908 25.9626 216.179 61.5685C222.878 75.5142 226.749 91.0917 226.749 107.559C226.749 166.161 178.809 213.932 120 213.932C62.9777 213.932 16.2283 169.128 13.3995 113.049C13.2506 111.268 13.1017 109.488 13.1017 107.708Z" fill="white"/>
<path d="M206.352 107.708C206.352 60.3817 167.792 21.957 120.298 21.957C72.804 21.957 34.2432 60.3817 34.2432 107.708C34.2432 155.034 72.804 193.459 120.298 193.459C167.792 193.459 206.352 154.886 206.352 107.708ZM120.298 192.123C73.5484 192.123 35.4342 154.292 35.4342 107.559C35.4342 60.8267 73.3995 22.9955 120.298 22.9955C167.047 22.9955 205.161 60.8267 205.161 107.559C205.161 154.292 167.196 192.123 120.298 192.123Z" fill="white"/>
<path d="M187.891 112.01L188.189 110.675L198.61 108.153L198.015 97.9162L187.444 96.7293L186.849 94.949L186.7 93.6138L196.079 88.718L192.953 79.0747L182.531 80.41L181.489 78.9264L181.042 77.5912L188.933 70.47L183.424 61.8652L173.598 65.8709L172.258 64.5357L171.514 63.3488L177.469 54.4473L170.025 47.4745L161.538 53.7056L159.901 52.8154L158.859 51.9253L162.283 41.8369L153.35 36.9411L146.65 45.1008L145.012 44.5074L143.821 43.7656L144.715 33.2322L134.739 30.7101L130.273 40.205H128.486L127.146 40.0566L125.36 29.5232H115.087L113.151 39.9083L111.365 40.3533H110.025L105.707 30.5617L95.732 33.0838L96.4764 43.6172L94.8387 44.5074L93.4988 44.8041L86.799 36.496L77.866 41.3918L81.1414 51.3318L79.8015 52.667L78.6104 53.4088L70.1241 47.0294L62.6799 54.0023L68.3375 62.9037L67.2953 64.3873L66.2531 65.2775L56.5757 61.2718L51.067 69.8766L58.8089 76.9977L58.2134 78.778L57.469 79.9649L46.8983 78.4813L43.7717 88.1246L53.0025 93.1687V94.949L52.5558 96.2843L41.9851 97.4711L41.3896 107.708L51.6625 110.23L51.9603 112.01L51.8114 113.345L41.8362 117.054L43.7717 126.994H54.3424L55.0868 128.626L55.3846 129.961L46.6005 136.044L50.9181 145.242L61.1911 142.572L62.3821 144.055L62.9777 145.391L55.9801 153.402L62.531 161.265L71.7618 156.072L73.2506 157.111L74.1439 158.149L69.3796 167.644L77.7171 173.579L85.3102 166.309L87.0968 167.051L88.2878 167.941L86.0546 178.326L95.5831 182.035L101.241 173.134L103.027 173.43L104.367 173.875L104.814 184.557L114.938 185.892L118.213 175.804L120 175.507L121.34 175.656L124.466 185.892L134.591 184.557L135.186 174.024L136.973 173.282L138.313 173.134L143.821 182.183L153.35 178.475L151.266 168.089L152.754 167.051L154.094 166.606L161.687 174.024L170.025 168.089L165.409 158.595L166.601 157.111L167.792 156.369L177.022 161.71L183.573 153.847L176.725 145.836L177.469 144.204L178.362 143.165L188.635 145.984L192.953 136.786L184.318 130.703L184.615 128.923L185.211 127.736L195.931 127.884L197.866 117.945L188.04 114.087L187.891 112.01ZM195.037 126.401L184.764 126.253H184.02L183.573 128.33L182.531 130.703L191.464 137.083L188.04 144.501L178.065 141.83H177.916L177.32 141.682L176.427 143.61L174.789 145.539L181.935 153.995L176.725 160.227L167.792 155.182V155.034L167.345 154.737L166.005 156.369L163.921 157.853L168.685 167.793L162.134 172.54L154.69 165.419V165.271L154.243 164.826L152.457 166.161L150.074 167.051L152.159 177.881L144.566 180.848L139.206 172.095V171.947L138.908 171.502L136.973 172.243L134.442 172.54L133.846 183.519L125.658 184.557L122.68 174.766V174.617L122.531 174.024L120.447 174.321L117.916 174.024L114.64 184.557L106.452 183.519L106.005 173.282V172.54L103.921 172.243L101.538 171.353L95.732 180.7L88.139 177.733L90.2233 167.644V167.496L90.3722 166.903L88.2878 166.161L86.2035 164.677L78.1638 172.243L71.6129 167.496L76.2283 158.298L76.3772 158.149L76.6749 157.556L74.8883 156.221L73.2506 154.292L63.5732 159.633L58.3623 153.402L65.062 145.687H65.2109L65.6576 145.242L64.3176 143.61L63.2754 141.237L51.6625 143.907L48.2382 136.489L56.7246 130.555H56.8734L57.3201 130.258L56.4268 128.33L55.9801 125.807H44.9628L43.4739 117.796L53.1514 114.236H53.3002L53.8958 114.087L53.4491 112.01L53.598 109.488L42.8784 106.818L43.3251 98.658L53.598 97.6195H54.3424L54.4913 95.5425L55.2357 93.1687L45.2605 87.5311L47.7916 79.8165L57.9156 81.3001H58.0645L58.6601 81.4485L59.2556 79.3715L60.5955 77.1461L52.5558 69.7282L56.8734 62.9037L66.402 66.9094L66.9975 67.2061L68.1886 65.4258L70.1241 63.6455L64.1687 54.4473L70.1241 48.8097L78.3127 55.0408V55.1891L78.7593 55.4858L80.397 54.0023L82.6303 52.8154L79.206 42.4304L86.3524 38.573L92.7543 46.5844V46.7327L93.0521 47.1778L94.9876 46.1393L97.5186 45.5459L97.072 34.1223L104.963 32.0453L109.132 41.3918V41.5402L109.429 42.1336L111.514 41.5402H114.045L115.98 30.7101H124.169L125.955 40.7984V40.9468L126.104 41.5402H128.337L130.868 42.1336L135.484 32.1937L143.375 34.2707L142.63 44.5074V45.2491L144.715 45.8426L146.948 47.0294L153.945 38.573L161.092 42.4304L157.668 52.0736L157.519 52.222L157.37 52.8154L159.305 53.8539L161.241 55.6342L170.174 49.1065L176.129 54.7441L170.471 63.3488H170.323L170.025 63.7939L171.663 65.2775L173.002 67.5028L183.275 63.3488L187.593 70.1733L180 76.9977H179.851L179.404 77.4428L180.596 79.2231L181.34 81.5968L192.357 80.1133L194.888 87.8279L185.806 92.5753H185.658L185.062 92.872L185.806 94.949L185.955 97.4711L196.973 98.8063L197.419 106.966L187.444 109.34H187.295L186.7 109.488L186.849 111.565L186.402 114.087L196.675 118.093L195.037 126.401Z" fill="white"/>
<path d="M27.5434 123.434C25.1613 123.434 23.0769 125.362 23.0769 127.884C23.0769 130.407 25.0124 132.335 27.5434 132.335C29.9256 132.335 32.0099 130.407 32.0099 127.884C32.0099 125.362 30.0744 123.434 27.5434 123.434Z" fill="white"/>
<path d="M212.308 123.434C209.926 123.434 207.841 125.362 207.841 127.884C207.841 130.407 209.777 132.335 212.308 132.335C214.69 132.335 216.774 130.407 216.774 127.884C216.774 125.362 214.839 123.434 212.308 123.434Z" fill="white"/>
<path d="M239.256 214.674V214.377C220.645 216.306 203.375 216.306 184.764 214.377H184.169V228.174C141.29 234.554 99.4541 234.554 56.5757 228.323V215.416L56.4268 214.377C37.3697 216.306 19.6526 216.306 0.595534 214.377V214.674H0V238.708H0.595534V239.005C8.33747 239.746 15.7816 240.191 23.2258 240.34V251.318L23.6725 251.467C56.129 258.588 87.9901 262 120 262C152.01 262 183.871 258.439 216.328 251.467L216.774 251.318V240.34C224.218 240.191 231.663 239.746 239.553 239.005V238.708H240V214.674H239.256ZM1.04218 238.114V215.416C10.4218 216.306 19.5037 216.751 28.5856 216.751C37.3697 216.751 46.1538 216.306 55.2357 215.416C52.8536 216.454 47.4938 218.679 41.6873 220.015C36.3275 221.35 28.7345 222.24 25.4591 222.537C25.0124 222.388 24.4169 222.388 23.9702 222.24L23.3747 222.092V239.301C15.9305 239.301 8.63524 238.856 1.04218 238.114ZM215.583 250.576C151.266 264.522 88.5856 264.522 24.268 250.576V223.427C34.9876 225.801 45.7072 227.729 56.4268 229.213C99.603 235.444 141.439 235.444 184.615 229.065C184.615 229.065 184.615 229.065 184.764 229.065C194.888 227.581 205.31 225.652 215.583 223.427V250.576ZM215.881 222.388C215.732 222.388 215.583 222.388 215.434 222.537H215.285C214.988 222.537 214.69 222.685 214.541 222.685C211.414 222.388 203.821 221.498 199.057 220.163C193.548 218.679 188.337 216.602 185.955 215.564C203.821 217.344 220.645 217.344 238.66 215.416V238.114C230.918 238.856 223.623 239.301 216.476 239.45V222.24L215.881 222.388Z" fill="white"/>
<path d="M72.2084 242.12L66.5509 241.527L64.4665 241.23C63.5732 239.895 62.6799 238.708 61.6377 237.966C60.5955 237.224 59.4045 236.779 58.2134 236.482C57.1712 236.334 56.2779 236.482 55.5335 236.779C54.938 237.076 54.4913 237.669 54.3424 238.411C54.3424 238.856 54.3424 239.301 54.4913 239.895L53.4491 239.746L53.3002 241.23L54.3424 241.378L53.4491 248.499L55.3846 248.796L56.2779 241.675L57.6179 241.823L63.2754 242.565L62.9777 244.494L58.8089 244.049C58.5112 244.049 58.2134 244.049 58.0645 244.197C57.9156 244.345 57.7667 244.494 57.7667 244.79C57.7667 245.087 57.7667 245.384 57.9156 245.681C58.0645 245.977 58.3623 246.274 58.6601 246.571C58.9578 246.867 59.2556 247.016 59.5533 247.016C59.8511 247.016 60.1489 247.016 60.2978 246.867C60.4466 246.719 60.5955 246.422 60.5955 246.126V245.829L62.8288 246.126L62.3821 249.835L64.1687 250.131L65.062 243.01L66.402 243.159L71.464 243.752L73.1017 243.9C73.2506 244.197 73.3995 244.494 73.2506 244.79C73.2506 245.236 73.1017 245.384 72.804 245.681C72.5062 245.829 72.2084 245.977 71.7618 245.977L71.9107 245.087L70.1241 244.939C69.3796 244.79 68.6352 244.939 68.1886 244.939C67.7419 245.087 67.2953 245.236 66.9975 245.532C66.6998 245.829 66.5509 246.274 66.402 246.719C66.402 247.313 66.402 247.906 66.8486 248.499C67.1464 249.093 67.7419 249.835 68.4864 250.576L69.8263 249.538C69.2308 249.093 68.933 248.648 68.6352 248.203C68.3375 247.906 68.3375 247.461 68.3375 247.164C68.3375 246.867 68.4863 246.719 68.6352 246.571C68.7841 246.422 69.0819 246.274 69.2308 246.274C69.5285 246.274 69.9752 246.274 70.4218 246.274L71.6129 246.422C71.7618 247.164 72.0596 247.906 72.5062 248.351C73.1017 248.944 73.6973 249.39 74.5906 249.39C75.0372 249.39 75.335 249.39 75.7816 249.39C76.2283 249.39 76.526 249.241 76.8238 249.093L76.6749 251.17L78.6104 251.318L79.206 244.197L80.5459 244.345L80.6948 242.862L72.2084 242.12ZM56.2779 239.153C56.2779 238.708 56.5757 238.559 56.8734 238.263C57.1712 238.114 57.6179 238.114 58.2134 238.114C58.9578 238.263 59.8511 238.559 60.4466 239.005C61.0422 239.45 61.7866 240.043 62.2332 240.933L57.7667 240.34L56.2779 240.191C56.2779 239.895 56.2779 239.45 56.2779 239.153ZM74.7394 246.274C75.0372 245.977 75.1861 245.681 75.1861 245.236C75.1861 244.79 75.1861 244.345 74.8883 243.9L77.2705 244.049L76.9727 247.164C76.6749 247.461 76.3772 247.758 76.0794 247.758C75.7816 247.906 75.335 247.906 75.0372 247.906C74.7394 247.906 74.4417 247.758 74.1439 247.609C73.995 247.461 73.6973 247.164 73.6973 246.867C74.1439 246.719 74.5906 246.571 74.7394 246.274Z" fill="white"/>
<path d="M78.4615 241.527C78.7593 241.527 79.0571 241.527 79.206 241.23C79.3548 241.082 79.5037 240.785 79.5037 240.488C79.5037 240.191 79.5037 239.895 79.206 239.746C79.0571 239.598 78.7593 239.45 78.4615 239.45C78.1638 239.45 77.866 239.45 77.7171 239.746C77.5682 239.895 77.4193 240.191 77.4193 240.488C77.4193 240.785 77.4193 241.082 77.7171 241.23C77.866 241.378 78.1638 241.527 78.4615 241.527Z" fill="white"/>
<path d="M120.744 252.357V245.532H122.084V244.049L113.151 244.197H108.834L99.7519 244.049V245.532H101.39C101.538 245.829 101.687 246.126 101.687 246.422C101.687 246.868 101.538 247.164 101.241 247.313C100.943 247.461 100.645 247.609 100.05 247.758C100.199 248.796 100.645 249.686 101.092 250.28C101.687 250.873 102.432 251.17 103.176 251.17C103.623 251.17 103.921 251.17 104.367 251.022C104.665 250.873 105.112 250.725 105.409 250.576V252.653H107.345L107.494 245.532H109.876V252.653H111.811V245.532H118.809V247.016H117.022C116.278 247.016 115.534 247.164 115.087 247.313C114.64 247.461 114.342 247.758 114.045 248.054C113.747 248.351 113.598 248.796 113.598 249.39C113.598 249.983 113.747 250.576 114.194 251.17C114.64 251.763 115.236 252.357 115.98 253.099L117.171 251.912C116.576 251.467 116.129 251.17 115.831 250.725C115.534 250.428 115.385 250.131 115.385 249.835C115.385 249.538 115.385 249.39 115.533 249.241C115.682 249.093 115.831 248.945 116.129 248.945C116.427 248.945 116.725 248.796 117.32 248.796H118.511V252.653C118.213 252.653 118.065 252.802 117.767 252.802L118.213 254.137C118.511 253.989 118.958 253.84 119.256 253.84C119.553 253.84 119.702 253.84 119.851 253.989C120 254.137 120 254.285 120.149 254.434C120.149 254.73 120 254.879 119.851 254.879C119.702 255.027 119.404 255.027 119.107 255.027C118.511 255.027 118.065 254.879 117.469 254.582C117.022 254.285 116.427 253.84 115.831 253.247L114.64 254.137C115.385 255.027 116.129 255.472 116.873 255.917C117.618 256.214 118.362 256.362 119.256 256.362C120 256.362 120.596 256.214 121.042 255.769C121.489 255.324 121.638 254.879 121.638 254.285C121.638 253.692 121.34 253.099 120.893 252.802C121.34 252.653 121.042 252.505 120.744 252.357ZM105.558 248.648C105.261 248.945 104.963 249.241 104.665 249.39C104.367 249.538 103.921 249.686 103.623 249.538C103.325 249.538 103.027 249.39 102.73 249.241C102.432 249.093 102.283 248.796 102.134 248.499C102.581 248.351 103.027 248.054 103.176 247.758C103.474 247.461 103.623 247.164 103.623 246.719C103.623 246.274 103.474 245.829 103.325 245.384H105.707L105.558 248.648Z" fill="white"/>
<path d="M143.821 250.873C143.077 250.131 142.481 249.538 141.886 249.093C142.481 248.648 142.779 248.203 143.077 247.609C143.375 247.016 143.524 246.422 143.375 245.829C143.375 245.236 143.226 244.79 142.928 244.345C142.63 243.9 142.184 243.604 141.737 243.455C141.29 243.307 140.695 243.159 140.099 243.159C139.355 243.159 138.908 243.455 138.462 243.752C138.164 244.049 137.866 244.642 138.015 245.087C138.015 245.681 138.313 246.126 138.759 246.422C139.206 246.719 139.95 247.016 140.844 247.016L141.141 245.829C140.695 245.829 140.397 245.681 140.099 245.681C139.801 245.532 139.653 245.384 139.653 245.087C139.653 244.939 139.653 244.79 139.801 244.642C139.95 244.494 140.099 244.494 140.248 244.494C140.546 244.494 140.844 244.642 141.141 244.79C141.439 245.087 141.439 245.384 141.588 245.829C141.588 246.274 141.588 246.719 141.29 247.164C141.141 247.609 140.844 247.906 140.397 248.054C139.95 247.758 139.504 247.609 139.057 247.609C138.759 247.609 138.462 247.758 138.164 247.906C138.015 248.054 137.866 248.351 137.866 248.648C137.866 248.945 138.015 249.241 138.313 249.538C138.61 249.686 138.908 249.835 139.355 249.835C139.653 249.835 139.95 249.835 140.248 249.686C140.993 250.28 141.588 251.022 142.333 251.763L143.821 250.873Z" fill="white"/>
<path d="M147.097 251.17L146.65 244.345L147.99 244.197L147.841 242.713L143.672 243.01L143.821 244.494H144.864L145.31 251.318C145.012 251.318 144.864 251.467 144.566 251.615L145.161 252.95C145.459 252.802 145.906 252.653 146.203 252.653C146.501 252.653 146.65 252.653 146.799 252.802C146.948 252.95 147.097 253.099 147.097 253.247C147.097 253.395 147.097 253.692 146.948 253.84C146.799 253.989 146.501 253.989 146.203 254.137C145.608 254.137 145.161 254.137 144.566 253.84C144.119 253.544 143.524 253.099 142.928 252.653L141.737 253.692C142.481 254.434 143.375 255.027 144.119 255.324C144.864 255.621 145.608 255.769 146.501 255.621C147.246 255.621 147.841 255.324 148.288 254.879C148.734 254.434 148.883 253.989 148.883 253.395C148.883 252.802 148.586 252.208 148.139 251.912C147.692 251.467 147.395 251.318 147.097 251.17Z" fill="white"/>
<path d="M179.702 239.005L170.769 240.34L162.878 241.378L161.39 241.527C161.092 240.785 160.794 240.191 160.496 239.746C160.199 239.301 159.901 238.856 159.603 238.559C159.305 238.263 159.007 238.114 158.71 238.114C158.412 237.966 157.965 237.966 157.519 238.114C157.072 238.114 156.625 238.263 156.03 238.559L156.625 240.043C156.923 239.895 157.221 239.746 157.519 239.746C157.965 239.746 158.263 239.895 158.561 240.191C158.859 240.488 159.156 241.082 159.454 241.823L158.263 241.972L153.797 242.417L153.945 243.9L155.285 243.752L155.583 246.274L153.201 246.422L153.052 244.939C153.052 244.345 152.903 243.9 152.605 243.455C152.457 243.159 152.159 242.862 151.712 242.565C151.266 242.417 150.67 242.268 150.074 242.417C149.479 242.417 148.883 242.713 148.586 243.01C148.288 243.307 148.139 243.752 148.139 244.345C148.139 244.939 148.437 245.384 148.883 245.681C149.33 245.977 149.926 246.126 150.819 246.126V244.79C150.521 244.79 150.223 244.79 150.074 244.642C149.926 244.494 149.777 244.345 149.777 244.197C149.777 244.049 149.777 243.9 149.926 243.9C150.074 243.9 150.223 243.752 150.372 243.752C150.67 243.752 150.968 243.752 151.117 244.049C151.266 244.345 151.414 244.642 151.414 245.236L151.563 246.571H151.414C151.117 246.571 150.819 246.719 150.67 246.867C150.521 247.016 150.521 247.313 150.521 247.609C150.521 247.906 150.67 248.203 150.968 248.499C151.266 248.796 151.563 249.093 151.861 249.241C152.159 249.39 152.457 249.538 152.754 249.538C153.052 249.538 153.35 249.39 153.499 249.241C153.648 249.093 153.648 248.796 153.648 248.351V248.203L156.03 248.054L156.328 251.17L158.263 251.022L157.667 243.9L159.007 243.752L160.05 243.604L160.794 250.725L162.73 250.576L161.985 243.455L163.325 243.307L167.047 242.862L167.196 243.604C166.154 243.752 165.409 244.197 164.814 244.642C164.218 245.087 164.069 245.829 164.218 246.571C164.367 247.461 164.814 248.203 165.409 248.499C166.154 248.945 167.047 249.093 168.089 248.945C168.536 248.945 168.834 248.796 168.834 248.796C169.28 249.538 169.727 250.131 170.025 250.576L171.514 249.686C170.918 249.093 170.62 248.648 170.323 248.351C170.62 248.203 170.769 248.054 170.769 247.758C170.918 247.609 170.918 247.313 170.918 247.016C170.918 246.571 170.62 246.274 170.323 246.126C170.025 245.977 169.578 245.829 169.132 245.829C168.834 245.829 168.536 245.977 168.387 246.126C168.238 246.274 168.089 246.571 168.089 246.867C168.089 247.016 168.089 247.016 168.089 247.164C168.089 247.164 167.94 247.164 167.792 247.164C167.196 247.313 166.6 247.164 166.303 247.016C166.005 246.867 165.707 246.571 165.707 246.126C165.707 245.977 165.707 245.829 165.707 245.532C165.707 245.384 165.856 245.236 166.154 245.087C166.303 244.939 166.6 244.79 166.898 244.79C167.196 244.642 167.643 244.642 168.238 244.494L168.983 244.345L168.685 241.972L170.918 241.675L172.556 241.378C172.854 241.675 173.002 241.972 173.002 242.268C173.002 242.713 173.002 243.01 172.705 243.159C172.407 243.455 172.109 243.604 171.663 243.752C171.96 244.79 172.556 245.532 173.151 245.977C173.747 246.422 174.491 246.719 175.385 246.571C175.831 246.571 176.129 246.422 176.576 246.274C176.873 246.126 177.171 245.977 177.469 245.681L177.767 247.758L179.553 247.461L178.511 240.34L179.702 240.191L181.191 239.895L181.638 242.417H181.489C181.191 242.417 180.893 242.565 180.744 242.713C180.596 242.862 180.596 243.159 180.596 243.455C180.596 243.752 180.744 244.049 181.042 244.197C181.34 244.494 181.638 244.642 181.935 244.939C182.233 245.087 182.531 245.236 182.829 245.087C183.127 245.087 183.424 244.939 183.573 244.642C183.722 244.494 183.722 244.197 183.722 243.752V243.455L186.253 243.01L186.7 245.977L188.486 245.681L187.295 238.708L188.635 238.559L188.337 237.076L179.702 239.005ZM176.427 244.939C176.129 245.087 175.831 245.236 175.385 245.384C175.087 245.384 174.64 245.384 174.491 245.236C174.342 245.087 174.045 244.939 173.747 244.642C174.194 244.345 174.491 244.049 174.789 243.752C175.087 243.455 175.087 243.01 174.938 242.565C174.938 242.12 174.64 241.675 174.342 241.378L176.725 241.082L177.171 244.197C177.022 244.494 176.725 244.79 176.427 244.939ZM185.806 239.598L186.253 242.12L183.722 242.565L183.275 240.043L185.806 239.598Z" fill="white"/>
<path d="M187.742 246.867C187.444 246.867 186.998 247.016 186.849 247.164L187.444 248.499C187.742 248.351 187.891 248.351 188.189 248.351C188.784 248.203 189.231 248.351 189.677 248.499C190.124 248.648 190.72 249.093 191.315 249.686L192.357 248.648C191.464 247.906 190.72 247.313 189.975 247.016C189.231 246.719 188.635 246.719 187.742 246.867Z" fill="white"/>
<path d="M175.236 82.7837V81.5968H174.64C164.814 61.2718 143.97 47.3262 119.851 47.3262C86.3524 47.3262 59.1067 74.4756 59.1067 107.856C59.1067 141.237 86.3524 168.386 119.851 168.386C153.35 168.386 180.596 141.237 180.596 107.856C180.596 98.8063 178.66 90.3499 175.236 82.7837ZM173.3 81.5968H146.948L148.883 79.5198H149.33V79.0747L152.903 75.5142L149.33 78.9264V71.9536H157.221V71.0634H120.596V70.9151H157.37V70.0249H154.69V64.3873H157.37V63.4972H120.596H102.283V64.3873H104.814V70.0249H102.283V70.9151H120.447V71.0634H102.283V71.9536H110.025V79.5198H112.705V71.9536H120.447L120.298 81.5968H94.9876V54.0023C102.581 50.4417 111.067 48.513 120 48.513C143.375 48.3647 163.623 62.0136 173.3 81.5968ZM126.253 132.929L121.042 130.555V128.181L131.166 118.686L135.037 122.395L130.124 132.929H126.253ZM129.677 134.116L129.529 134.412L128.933 134.116H129.677ZM122.084 158.743L120.596 156.369L126.253 148.951L132.208 157.111C129.677 159.633 125.658 160.227 122.084 158.743ZM119.702 155.627L116.873 154.144C116.129 152.957 115.682 151.622 115.533 150.287C115.236 148.061 115.831 145.836 117.022 144.055L120.744 145.836L120.893 153.402L121.042 145.984L126.104 148.506L119.702 155.627ZM94.9876 132.929V118.983L104.814 123.434L95.5831 132.929H94.9876ZM83.2258 109.488H77.866C78.4615 108.895 79.0571 108.45 79.8015 107.856H81.2903C81.8858 108.45 82.6303 109.043 83.2258 109.488ZM84.4169 110.972C85.0124 111.713 85.4591 112.455 85.9057 113.345H75.0372C75.335 112.455 75.9305 111.713 76.5261 110.972H84.4169ZM83.2258 83.6738C82.3325 84.4156 81.4392 85.1574 80.5459 85.8992C79.6526 85.1574 78.6104 84.4156 77.866 83.6738H83.2258ZM76.5261 82.1903C75.9305 81.4485 75.335 80.5583 75.0372 79.6682H86.0546C85.6079 80.5583 85.1613 81.4485 84.5658 82.1903H76.5261ZM83.2258 89.7565H77.866C78.7593 89.0147 79.6526 88.2729 80.5459 87.5311C81.4392 88.2729 82.3325 89.0147 83.2258 89.7565ZM84.4169 91.2401C85.0124 91.9819 85.4591 92.7237 85.9057 93.6138H75.0372C75.335 92.7237 75.9305 91.9819 76.5261 91.2401H84.4169ZM86.3524 94.949C86.5012 95.3941 86.5012 95.9875 86.5012 96.581C86.5012 97.026 86.3524 97.6195 86.3524 98.0645H74.4417C74.2928 97.6195 74.2928 97.1744 74.2928 96.581C74.2928 95.9875 74.4417 95.3941 74.4417 94.949H86.3524ZM86.0546 99.3998C85.6079 100.29 85.1613 101.18 84.5658 101.922H76.5261C75.9305 101.18 75.335 100.29 75.0372 99.3998H86.0546ZM83.2258 103.405C82.3325 104.147 81.4392 104.889 80.5459 105.631C79.6526 104.889 78.6104 104.147 77.866 103.405H83.2258ZM81.1414 107.856H79.9504C80.0993 107.708 80.397 107.559 80.5459 107.411C80.6948 107.559 80.8437 107.708 81.1414 107.856ZM110.918 64.3873V70.0249H105.707V64.3873H110.918ZM111.811 64.3873H117.022V70.0249H111.811V64.3873ZM117.916 64.3873H120.596V70.0249H118.065V64.3873H117.916ZM148.586 70.0249V64.3873H153.797V70.0249H148.586ZM147.692 70.0249H142.481V64.3873H147.692V70.0249ZM141.588 70.0249H136.377V64.3873H141.588V70.0249ZM135.484 70.0249H130.273V64.3873H135.484V70.0249ZM129.231 70.0249H124.02V64.3873H129.231V70.0249ZM123.127 70.0249H120.596V64.3873H123.127V70.0249ZM123.127 73.4371H124.02V78.6297H123.127V73.4371ZM124.02 72.547H123.127V71.9536H124.02V72.547ZM124.913 79.5198V71.9536H134.442V79.5198H137.122V71.9536H146.65V79.5198H148.734L146.65 81.5968H120.744L120.596 71.9536H122.233V79.5198H124.913ZM135.335 73.4371H136.228V78.6297H135.335V73.4371ZM136.377 72.547H135.484V71.9536H136.377V72.547ZM147.692 73.4371H148.586V78.6297H147.692V73.4371ZM148.586 72.547H147.692V71.9536H148.586V72.547ZM145.906 98.9547L142.035 107.411H139.801L131.017 98.0645L135.037 93.9105L145.906 98.9547ZM110.769 82.7837L120.149 87.0861V87.3828L110.174 96.8777L105.707 92.5753L110.323 82.7837H110.769ZM120.447 128.033L119.256 129.071L109.876 119.131L111.365 117.648L112.556 121.802V121.95L120.298 119.576V119.725H120.149L120.447 128.033ZM128.635 99.2514L127.295 94.949V94.8007L121.787 96.4326C121.489 96.4326 121.191 96.2843 120.893 96.2843V95.6908H121.042L120.893 87.9762L130.124 97.7678L128.635 99.2514ZM129.677 116.016L128.635 115.126C129.975 113.494 130.868 111.565 131.166 109.488L132.953 115.422L129.826 116.313L129.677 116.016ZM111.811 116.164L111.365 116.609L110.769 114.681C111.216 115.126 111.514 115.719 112.109 116.164H111.811ZM108.536 107.114L106.898 101.477L111.514 100.142C109.727 101.922 108.685 104.444 108.536 107.114ZM128.189 99.6965C126.7 98.2129 124.913 97.1744 122.829 96.581L126.998 95.2457L128.189 99.6965ZM120.893 87.3828L134.293 93.6138L130.273 97.4711L120.893 87.3828ZM120.298 96.2843C120.149 96.2843 120.149 96.2843 120 96.2843C117.022 96.2843 114.491 97.3228 112.407 99.1031L110.471 97.1744L120.298 87.9762V96.2843ZM111.663 99.5481L106.452 101.18H106.303L108.238 107.411L99.4541 107.559L110.025 97.7678L111.663 99.5481ZM108.387 108.301L108.536 108.598C108.685 110.23 109.132 111.862 110.025 113.197L111.067 116.758L109.429 118.686L99.603 108.153L108.387 108.301ZM113.002 121.505L111.663 117.351L112.556 116.461C114.491 118.093 117.171 119.131 119.851 119.131C120 119.131 120.149 119.131 120.298 119.131V119.28L113.002 121.505ZM128.189 115.571L129.231 116.609L125.36 117.796C126.402 117.203 127.295 116.461 128.189 115.571ZM130.273 116.758L133.399 115.867H133.548L131.315 108.45C131.315 108.301 131.315 108.301 131.315 108.153H132.804V108.301L139.653 108.153L140.695 109.191L131.315 117.945L130.273 116.758ZM132.804 107.263H131.315C131.166 104.889 130.422 102.515 129.082 100.735L128.784 99.8448L129.38 99.2514L130.422 98.0645L138.908 107.114L132.804 107.263ZM134.739 93.3171L120.893 86.9377V82.7837H145.608L134.739 93.3171ZM109.578 97.4711L98.7097 107.559L105.409 93.1687L109.578 97.4711ZM98.8586 108.153L108.983 118.983L105.112 123.137L94.9876 118.538V116.016L98.5608 108.301L98.8586 108.153ZM109.578 119.428L118.958 129.516L105.558 123.285L109.578 119.428ZM120.447 128.626V130.11L119.404 129.665L120.447 128.626ZM121.042 119.873V119.576L129.38 117.054L130.72 118.39L120.893 127.588L121.042 119.873ZM131.762 118.093L141.141 109.34L135.335 121.802L131.762 118.093ZM141.29 109.043L140.397 108.005H141.886L141.29 109.043ZM120.298 86.641L111.96 82.7837H120.447L120.298 86.641ZM105.409 92.2786L95.5831 82.7837H109.876L105.409 92.2786ZM95.2854 82.7837L105.112 92.872L98.263 107.559H94.8387V82.7837H95.2854ZM98.1141 108.153L94.9876 114.829V108.153H98.1141ZM105.261 123.582L120.447 130.555V132.78H95.8809L105.261 123.582ZM121.042 130.852L125.211 132.78H120.893L121.042 130.852ZM135.335 122.692L145.757 132.929H130.72L135.335 122.692ZM145.906 132.632L135.633 122.099L142.184 107.856H145.906V132.632ZM142.481 107.411L145.906 99.9932V107.411H142.481ZM145.906 98.5096L135.186 93.4655L145.757 82.6353H145.906V98.5096ZM110.918 73.4371H111.811V78.6297H110.918V73.4371ZM111.811 72.547H110.918V71.9536H111.811V72.547ZM60.4466 107.708C60.4466 84.4156 73.995 64.239 93.6476 54.4473V80.855L88.139 75.5142L93.6476 81.1518V107.559L83.2258 107.708C82.6303 107.263 82.1836 106.818 81.5881 106.373C83.0769 105.186 84.5658 103.999 85.7568 102.515C86.9479 100.883 87.6923 99.1031 87.9901 97.1744H88.139C88.139 96.8777 88.139 96.7293 88.139 96.4326C88.139 96.2842 88.139 95.9875 88.139 95.8392H87.9901C87.8412 93.9105 87.0968 92.1302 85.7568 90.4983C84.5658 89.0147 83.0769 87.8279 81.5881 86.641C83.0769 85.4541 84.5658 84.2673 85.7568 82.7837C87.2457 80.855 87.9901 78.6297 87.9901 76.1076H86.6501C86.6501 76.8494 86.5012 77.5912 86.5012 78.1846H74.5906C74.4417 77.5912 74.4417 76.8494 74.4417 76.1076H72.9529C72.9529 78.6297 73.6973 80.855 75.1861 82.7837C76.3772 84.2673 77.866 85.4541 79.3548 86.641C77.866 87.8279 76.3772 89.0147 75.1861 90.4983C73.995 92.1302 73.2506 93.9105 72.9529 95.8392C72.9529 96.1359 72.9529 96.2842 72.9529 96.4326C72.9529 96.7293 72.9529 96.8777 72.9529 97.1744H73.1017C73.3995 99.1031 73.995 100.883 75.335 102.515C76.526 103.999 78.0149 105.186 79.5037 106.373C78.9082 106.818 78.3126 107.263 77.866 107.708H75.0372H77.7171C76.8238 108.45 76.0794 109.191 75.335 110.082C73.8461 112.01 73.1017 114.236 73.1017 116.758H74.4417C74.4417 115.867 74.5906 115.126 74.7394 114.532H86.3524C86.5012 115.274 86.6501 116.016 86.6501 116.758H87.9901C87.9901 114.236 87.2457 112.01 85.7568 110.082C85.1613 109.191 84.268 108.45 83.5236 107.708L93.7965 107.856V117.203L93.4988 117.796L93.3499 117.945L93.6476 118.093V132.632H66.8486V133.819H94.2432L88.2878 139.901L94.5409 133.819H120.596L120.744 144.204L117.171 142.424L116.873 142.869L116.427 142.424C115.98 143.017 115.533 143.462 115.236 144.204C115.533 143.61 115.831 143.017 116.278 142.424L115.236 141.533C113.449 143.61 112.705 146.429 113.3 149.545C113.896 152.512 115.533 155.331 118.213 157.556V166.012H119.553V158.446C121.787 160.078 124.467 160.968 126.998 161.117C127.146 161.117 127.295 161.117 127.444 161.117C130.422 161.117 132.953 160.078 134.591 158.001L133.548 157.111C133.102 157.704 132.506 158.149 131.911 158.446C132.506 158.001 132.953 157.556 133.399 156.963L132.953 156.518L133.399 156.221L126.849 147.319L133.399 138.863L126.551 146.874L120.596 144.055L120.744 133.67H127.593L129.231 134.412L129.38 134.561L129.826 133.67H145.906V160.82H146.352C138.462 164.826 129.529 166.903 120 166.903C87.0968 166.903 60.4466 140.347 60.4466 107.708ZM179.404 107.708C179.404 130.703 166.303 150.583 147.097 160.375V134.116L153.052 139.901L147.097 133.819V107.856L160.199 107.708V110.527C157.667 111.417 156.03 113.79 156.03 116.461C156.03 118.835 157.37 120.912 159.305 121.95H154.988V122.84H157.965L156.03 140.347L156.923 140.495L158.859 122.989H166.005L167.94 140.495L168.834 140.347L166.898 122.84H170.025V121.95H165.707C167.643 120.912 168.983 118.835 168.983 116.461C168.983 113.79 167.345 111.417 164.814 110.527V107.708V100.29H164.516L164.665 99.1031H163.623V94.3556H168.983V93.4655H162.73V97.026H160.199L161.39 98.5096V98.9547H160.347L160.496 100.142H160.199V107.559L147.097 107.411V82.7837H173.896C177.469 90.3499 179.404 98.8063 179.404 107.708ZM162.73 99.1031H162.283V98.5096L162.73 97.9162V99.1031ZM162.73 99.8448V100.883H162.283V99.9932H162.73V99.8448ZM164.218 111.268C166.452 112.01 167.94 113.939 168.089 116.313H163.623V107.708H163.921V111.12L164.218 111.268ZM167.94 117.203C167.643 119.873 165.261 122.099 162.432 122.099C159.603 122.099 157.221 120.022 156.923 117.203H167.94ZM163.623 107.708V101.773H163.921V107.708H163.623ZM162.73 107.559H162.283V101.625H162.73V107.559ZM161.241 101.625H161.538V107.559H161.241V101.625ZM161.39 107.708V111.862H162.283V107.708H162.73V116.313H157.072C157.221 113.939 158.71 112.01 160.943 111.268L161.241 111.12V107.708H161.39Z" fill="white"/>
</svg>
