<svg width="141" height="150" viewBox="0 0 141 150" fill="none" xmlns="http://www.w3.org/2000/svg">
<path d="M0.00502177 82.4366C0.0983609 65.4488 4.39196 52.8014 14.6593 42.6274C22.8264 34.5536 33.0471 30.68 44.2944 29.2333C52.5549 28.1599 60.3954 29.6066 67.9092 32.9668C74.863 36.0937 79.6233 41.6007 83.2635 48.0411C88.3038 57.0016 89.5639 66.6156 87.9771 76.6962C87.4638 79.963 86.2037 82.9966 84.9436 85.9834C84.0569 88.0836 84.7103 90.3704 86.577 91.3971C88.5372 92.4238 91.0106 91.6304 92.084 89.4836C96.3776 81.0365 97.3577 72.0292 96.5176 62.6953C96.191 59.1018 95.3042 55.6482 94.0908 52.288C93.4841 50.6079 93.6241 49.7212 95.6309 49.3945C103.938 47.9477 111.405 44.6809 117.472 38.7072C118.639 37.5871 119.712 37.9138 120.786 38.7538C126.666 43.3741 131.613 48.8345 134.88 55.6016C143.234 73.1493 141.88 90.6037 133.527 107.731C127.226 120.659 117.566 130.366 104.405 136.48C100.018 138.533 95.3509 139.84 90.7773 141.194C84.5703 143.06 78.4565 145.02 73.1362 148.894C71.2694 150.247 69.0293 150.434 67.2092 149.034C60.7221 144.04 52.9283 142.22 45.3678 139.98C35.0539 136.9 25.7666 132 18.1595 124.346C11.2057 117.345 6.1654 109.085 3.17855 99.6576C1.12509 93.2172 -0.0883173 86.5901 0.00502177 82.4366Z" fill="white"/>
<path d="M122.513 9.39853C121.579 23.4461 113.786 34.7867 101.231 39.5937C98.0579 40.8071 94.8377 41.4138 91.4775 41.7872C90.0308 41.9272 88.9107 41.5538 88.0707 40.3404C84.1504 34.7401 79.2968 30.0731 73.3698 26.5729C71.4563 25.4529 71.1763 24.2394 71.9697 22.186C76.5433 10.2386 84.8971 2.72479 97.5446 0.531318C104.918 -0.72876 112.105 0.204619 118.826 3.84484C121.253 5.24493 122.793 7.11172 122.513 9.39853Z" fill="white"/>
</svg>
