<svg width="156" height="150" viewBox="0 0 156 150" fill="none" xmlns="http://www.w3.org/2000/svg">
<path d="M44.9104 38.4993C55.5468 38.7894 65.2646 41.5935 73.0001 49.3291C77.158 53.4386 79.2369 58.9018 81.6059 64.075C83.4915 68.2328 86.4406 71.037 90.4535 73.2609C99.301 78.144 105.634 85.5411 110.566 94.2436C114.337 100.867 116.561 107.974 116.803 115.613C117.334 129.972 110.469 141.14 96.7386 146.604C87.0208 150.471 76.8679 150.471 66.715 149.359C53.5646 147.957 41.1394 144.283 29.7778 137.369C18.9964 130.842 10.9708 121.898 5.74927 110.392C1.68811 101.399 -0.48752 92.1646 0.0926461 82.2535C1.10794 65.332 9.08522 52.665 23.5894 44.1076C30.1646 40.1915 37.3199 38.4026 44.9104 38.4993ZM49.5518 125.863C49.6968 127.12 49.7452 128.425 49.9386 129.682C50.1319 131.084 50.7121 132.196 52.4042 131.954C54.0964 131.713 54.2898 130.504 54.0964 129.054C53.4679 124.606 54.0964 120.399 56.6105 116.58C57.4324 115.323 57.7708 113.921 56.2237 113.051C54.7249 112.18 53.7096 113.147 52.8877 114.453C50.7121 117.934 49.6001 121.705 49.5518 125.863ZM36.6431 59.0469C36.6431 59.5303 36.9815 60.4973 38.2385 60.7874C39.4956 61.0774 40.2208 60.4489 40.6559 59.3369C41.5745 56.9679 42.6381 54.744 45.3456 53.9221C46.5543 53.5353 47.3278 52.7617 47.0377 51.408C46.651 49.9092 45.4423 49.7642 44.1369 49.9576C40.6559 50.3444 36.6431 54.889 36.6431 59.0469Z" fill="white"/>
<path d="M155.239 82.3017C155.867 100.77 143.587 117.885 125.892 124.122C122.943 125.186 121.105 123.977 121.154 120.786C121.251 115.758 121.154 110.827 119.8 105.943C115.401 89.9889 106.505 77.4187 92.0005 69.248C87.4559 66.6856 85.522 62.6244 83.7332 58.3699C79.4786 48.362 72.565 41.2067 62.267 37.4839C59.3662 36.4203 58.5926 35.0182 59.5112 32.3108C62.6054 23.3182 66.8116 14.9542 73.9187 8.3306C84.555 -1.58057 98.5757 -2.40247 110.808 4.55952C124.296 12.1984 132.322 24.0918 136.625 38.741C137.108 40.4331 137.495 42.2219 137.495 43.9624C137.495 49.474 140.299 53.5835 143.925 57.3063C146.729 60.2071 149.485 63.1563 151.564 66.6372C154.562 71.5687 155.577 77.0319 155.239 82.3017ZM135.175 79.3525C131.162 79.0141 128.648 80.4162 126.52 82.6885C125.553 83.7521 125.263 84.9608 126.424 86.1211C127.584 87.2815 128.599 86.7013 129.518 85.7344C130.92 84.284 132.564 83.317 134.594 83.3654C136.335 83.4137 138.607 84.1873 138.607 81.4798C138.656 78.6757 136.093 79.5459 135.175 79.3525Z" fill="white"/>
</svg>
