<svg width="143" height="150" viewBox="0 0 143 150" fill="none" xmlns="http://www.w3.org/2000/svg">
<path d="M142.268 76.8302C140.423 62.4741 134.256 50.3306 122.923 40.7599C121.658 39.6793 120.973 39.6278 120.024 41.1201C118.232 44.053 115.386 45.0821 111.96 44.619C108.586 44.2074 105.213 44.4132 101.787 44.4132C99.8895 44.4132 99.2042 45.185 99.7313 47.0374C100.733 50.7937 101.207 54.6529 101.418 58.5635C101.576 62.011 100.838 64.9954 97.2013 66.5391C93.6171 68.0827 90.7708 66.7449 88.2407 64.3779C84.4984 60.879 80.3871 57.8431 76.1176 54.9616C72.7969 52.6975 69.8979 52.8005 66.63 55.013C62.3078 57.946 58.1438 61.0333 54.3487 64.5838C51.9241 66.8478 49.1305 67.9798 45.7571 66.5905C42.3837 65.2012 41.3296 62.4741 41.3823 59.1809C41.4877 55.013 42.0675 50.9481 43.1217 46.9345C43.5961 45.185 42.9635 44.4132 41.1714 44.4132C37.798 44.4132 34.372 44.1045 30.9986 44.619C27.6252 45.1336 24.8843 44.2074 23.0395 41.4802C21.8799 39.7308 20.8784 40.0909 19.6134 41.1715C13.8154 46.1112 9.12426 51.9257 5.85629 58.7693C1.27059 68.3915 -0.0998478 78.5282 0.00557058 88.9737C0.216407 103.484 5.64545 115.988 15.5021 126.536C30.4715 142.539 49.3941 149.897 71.5846 150C93.5117 149.846 112.382 142.436 127.404 126.485C134.836 118.612 139.738 109.35 141.846 98.7502C143.322 91.495 143.216 84.1369 142.268 76.8302Z" fill="white"/>
<path d="M33.2651 36.6437C35.5843 36.4894 37.8508 36.3865 39.8537 36.2835C43.1217 36.4894 46.1261 36.335 49.0778 37.0039C51.2916 37.5185 51.3443 38.3932 50.6064 40.0913C48.7089 44.3621 48.0764 48.8901 48.1291 53.5211C48.1291 54.7561 48.2345 55.991 49.6049 56.557C50.9754 57.123 52.135 56.557 53.1891 55.6823C53.7162 55.2192 54.1906 54.7561 54.7177 54.293C59.1453 50.4853 63.731 46.8319 69.2127 44.465C70.7413 43.7961 72.1117 43.8475 73.6403 44.465C76.3285 45.5455 78.6477 47.0377 80.9669 48.6843C84.024 50.8455 86.923 53.161 89.6639 55.6823C90.6654 56.6085 91.8777 57.123 93.2481 56.5056C94.6186 55.8881 94.6713 54.7046 94.6713 53.4182C94.724 49.0445 94.1969 44.7223 92.5102 40.6058C91.2452 37.467 91.456 37.1068 94.8294 36.5408C95.3565 36.4379 95.8836 36.4894 96.4107 36.3865C100.311 35.8204 104.212 36.0263 108.112 36.3865C109.799 36.5408 111.696 36.6437 112.276 34.5341C112.856 32.5273 111.222 31.704 109.799 30.9836C102.209 26.9701 94.0915 24.2429 85.4472 23.2138C78.8585 22.442 78.7004 22.1333 81.3358 16.0101C83.128 11.8422 85.4999 8.18882 88.7678 4.99858C89.7166 4.07238 90.4018 2.94036 89.822 1.55106C89.2422 0.110307 87.8718 0.0588514 86.5014 0.0588514C83.4442 0.0588514 80.3344 0.161762 77.2772 0.00739585C75.0107 -0.0955152 73.5349 0.88214 72.2172 2.52872C68.5275 7.31408 66.5773 12.8198 65.365 18.5828C64.627 22.2362 64.7325 22.2876 61.0428 22.7507C60.0413 22.8536 59.0399 22.9566 58.0911 23.0595C48.7089 24.2944 39.8537 27.1759 31.6311 31.7555C30.3661 32.4758 29.6281 33.4535 30.1552 34.8942C30.6823 36.335 31.7892 36.7466 33.2651 36.6437Z" fill="white"/>
</svg>
