<svg width="60" height="60" viewBox="0 0 60 60" fill="none" xmlns="http://www.w3.org/2000/svg">
<path d="M13.2458 30.1806C13.2458 22.5967 13.2247 14.9916 13.2458 7.40777C13.2669 2.30937 15.2515 0.333746 20.3187 0.333746C27.0117 0.333746 33.7046 0.376232 40.3975 0.312502C42.1499 0.291259 43.5011 0.801099 44.7468 2.0757C48.9906 6.45182 53.2766 10.743 57.6259 15.0341C58.8294 16.2238 59.315 17.5196 59.2939 19.1978C59.2517 30.7117 59.2939 42.2043 59.2517 53.7182C59.2517 57.9032 57.2459 59.9213 53.0866 59.9425C41.9599 59.9638 30.8332 59.9638 19.7064 59.9425C15.4204 59.9425 13.2669 57.8182 13.2247 53.4421C13.2035 45.6882 13.2458 37.9344 13.2458 30.1806ZM36.3437 35.194C39.1307 35.194 41.9388 35.1516 44.7257 35.2153C46.4781 35.2365 48.0194 34.8117 48.0616 32.836C48.0827 30.8392 46.4781 30.3293 44.789 30.3293C39.1307 30.3081 33.4512 30.3081 27.7928 30.3293C26.1882 30.3293 24.7314 30.8604 24.7103 32.7723C24.6892 34.6842 26.0616 35.2153 27.7295 35.2153C30.6009 35.194 33.4723 35.194 36.3437 35.194ZM33.6835 45.9856C35.7948 45.9856 37.885 46.0069 39.9963 45.9856C41.5165 45.9644 42.5933 45.3271 42.6144 43.6489C42.6355 41.9919 41.5376 41.2059 40.0808 41.1634C35.7948 41.0784 31.5299 41.0784 27.2439 41.1634C25.7871 41.1847 24.6681 41.9919 24.7314 43.6489C24.7947 45.2846 25.8926 45.9644 27.3917 45.9644C29.4819 46.0069 31.5721 45.9856 33.6835 45.9856ZM52.5376 19.1341C48.505 15.0979 44.5568 11.1041 40.6086 7.15285C40.6086 10.1482 40.5242 13.3984 40.6508 16.6274C40.6931 18.1357 41.7487 19.0704 43.2478 19.1128C46.4148 19.1978 49.5606 19.1341 52.5376 19.1341Z" fill="white" />
<path d="M0.0500166 30.1381C0.0500166 22.3206 0.0289034 14.4818 0.0500166 6.66426C0.0711298 1.77829 4.01929 -1.06832 8.66419 0.376231C9.52983 0.652395 9.52983 1.14099 9.29759 1.77829C8.38972 4.20003 8.62196 6.72799 8.62196 9.21346C8.60085 23.7014 8.62196 38.1681 8.62196 52.6561C8.62196 54.5255 8.53751 56.4161 9.25536 58.2218C9.76208 59.4752 9.23425 59.8363 8.00968 59.9425C2.41469 60.4099 -0.161118 58.0306 0.00778766 52.6773C0.21892 45.1784 0.0500166 37.6583 0.0500166 30.1381Z" fill="white" />
</svg>
