<svg width="125" height="150" viewBox="0 0 125 150" fill="none" xmlns="http://www.w3.org/2000/svg">
<g clip-path="url(#clip0_19_115)">
<path d="M124.307 84.1329C122.906 104.874 116.646 124.774 100.763 140.611C94.6435 146.73 87.3093 150.514 78.2 149.907C73.6687 149.58 69.7914 147.758 65.9608 145.703C63.2981 144.254 60.8222 144.161 58.2529 145.703C51.9465 149.533 45.1729 151.028 37.8855 149.206C32.233 147.805 27.5616 144.581 23.404 140.611C15.6027 133.183 10.324 124.074 6.39994 114.124C2.19564 103.519 -0.233507 92.5415 0.0467798 81.1432C0.373781 69.1843 2.89636 57.7393 10.7444 48.2562C17.845 39.8009 26.674 34.5689 38.2592 35.0828C43.0708 35.3163 47.2751 37.2316 51.5261 39.2871C54.0486 40.5016 56.4778 41.9031 59.2339 42.6038C64.3258 43.9585 68.5301 41.6228 72.6877 39.3338C80.3489 35.1762 88.2903 33.4945 96.6989 36.4375C105.808 39.6608 112.629 45.6402 117.393 54.0488C122.439 63.0647 123.887 72.9214 124.307 84.1329Z" fill="white"/>
<path d="M22.1895 11.2583C22.1427 5.23209 24.1515 3.6438 29.8506 4.29781C40.8752 5.46567 50.078 10.0904 57.272 18.5924C58.9537 20.5544 60.4018 22.6566 61.6164 24.9456C61.8967 25.4594 62.0368 26.3003 62.7376 26.347C63.485 26.3937 63.6251 25.5996 63.9054 25.039C68.5302 15.7428 75.2103 8.1751 83.5255 1.96208C84.3196 1.3548 85.2072 0.794224 86.0948 0.420509C88.4772 -0.51378 90.9531 0.280365 92.0275 2.19566C93.2421 4.34452 92.6815 7.14739 90.5794 8.64225C86.7955 11.305 83.3386 14.2947 80.2555 17.7048C77.219 21.0683 74.6497 24.7587 72.5943 28.8229C70.025 33.7746 62.6909 36.1103 57.7391 33.5877C51.8064 30.5046 45.7802 27.655 38.9132 27.0944C35.6899 26.8142 32.5601 27.1879 29.4302 27.7484C27.655 28.0754 26.6273 27.5149 25.9266 25.9266C23.7777 21.115 22.1427 16.21 22.1895 11.2583Z" fill="white"/>
</g>
<defs>
<clipPath id="clip0_19_115">
<rect width="124.307" height="150" fill="white"/>
</clipPath>
</defs>
</svg>
