<svg width="70" height="63" viewBox="0 0 70 63" fill="none" xmlns="http://www.w3.org/2000/svg">
<path d="M30.4587 62.9971C23.5893 62.9971 16.7199 62.8696 9.85048 62.9971C4.53641 63.1246 0 59.0445 0 53.3068C0 43.7441 0 34.1813 0 24.6185C0 19.7734 2.98107 15.9483 7.51747 15.1833C9.07281 14.9282 10.7578 14.9282 12.4427 15.0558C14.6461 15.1833 16.3311 14.5457 17.7568 12.8882C20.349 9.82811 23.7189 8.68058 27.7369 8.80808C30.4587 8.93558 33.1806 8.80808 35.9024 8.80808C36.6801 8.93558 37.5874 8.93558 38.365 9.4456C39.5315 10.2106 40.1796 11.6132 39.7908 12.7607C39.4019 14.2907 38.365 15.0558 36.8097 15.0558C33.699 15.0558 30.7179 15.1833 27.6073 15.0558C25.5335 14.9282 23.7189 15.5658 22.4228 17.0958C19.8306 20.2834 16.3311 21.4309 12.3131 21.1759C11.5354 21.1759 10.6281 21.1759 9.85048 21.1759C8.03592 21.1759 7.25825 21.6859 6.7398 23.471C6.48058 24.236 6.48058 24.746 6.48058 25.256C6.48058 34.4363 6.48058 43.6166 6.48058 52.7968C6.48058 52.9243 6.48058 53.0518 6.48058 53.3068C6.61019 55.4744 7.7767 56.6219 9.98009 56.6219C15.683 56.6219 21.3859 56.6219 26.9592 56.6219C34.9951 56.6219 43.0311 56.6219 51.1966 56.6219C53.6592 56.6219 54.5665 55.7294 54.5665 53.3068C54.5665 46.8041 54.5665 40.429 54.5665 33.9263C54.5665 33.1613 54.5665 32.3962 54.9553 31.6312C55.6034 30.2287 57.1587 29.4637 58.5844 29.8462C60.0102 30.2287 60.9174 31.2487 60.9174 32.9063C60.9174 34.5638 60.9174 36.0938 60.9174 37.7514C60.9174 43.1065 60.9174 48.4617 60.9174 53.6893C60.9174 59.0445 57.0291 62.8696 51.5854 62.8696C44.5864 62.9971 37.5874 62.9971 30.4587 62.9971Z" fill="#195839"/>
<path d="M30.5883 23.981C38.4946 23.5985 45.8825 30.4837 45.8825 39.0264C45.8825 47.3142 39.0131 54.0718 30.5883 54.0718C22.034 54.0718 15.2942 46.8041 15.2942 38.8989C15.2942 30.8662 22.2932 23.5985 30.5883 23.981ZM30.5883 30.3562C25.5335 30.3562 21.9044 34.0538 21.6451 38.8989C21.5155 43.8716 26.0519 47.6967 30.4587 47.6967C35.384 47.6967 39.4019 43.7441 39.4019 39.0264C39.5315 34.5638 35.6432 29.9737 30.5883 30.3562Z" fill="#195839"/>
<path d="M64.5466 15.1833C63.7689 15.1833 62.9912 15.1833 62.2136 15.1833C61.1767 15.0558 60.7878 15.4383 60.9174 16.4583C61.0471 17.9883 60.9174 19.3909 60.9174 20.9209C60.9174 22.8335 59.8806 23.981 58.3252 24.1085C56.381 24.3635 55.0849 23.3435 54.6961 21.4309C54.5665 20.7934 54.5665 20.2834 54.5665 19.6459C54.4369 18.2433 55.2145 16.3308 54.1776 15.4383C53.2704 14.5457 51.3262 15.1833 49.9005 15.1833C49.5116 15.1833 49.1228 15.1833 48.734 15.1833C46.9194 15.1833 45.7529 14.1632 45.4937 12.3782C45.3641 10.9756 46.4009 9.4456 48.0859 9.06309C49.6412 8.68057 51.1966 8.93558 52.7519 8.93558C54.5665 8.93558 54.5665 8.93558 54.5665 7.15053C54.5665 5.8755 54.5665 4.60046 54.5665 3.19792C54.6961 1.79538 55.3441 0.775354 56.6403 0.26534C57.8068 -0.244675 58.8437 0.0103325 59.8806 0.775354C60.6582 1.28537 60.9174 2.17789 60.9174 3.07042C60.9174 4.60046 60.9174 6.25801 60.9174 7.78805C60.9174 8.55307 61.1767 8.93558 62.084 8.93558C63.6393 8.93558 65.065 8.93558 66.6204 8.93558C68.9534 9.06309 70.1199 10.3381 69.9903 12.5057C69.8606 14.0357 68.8238 15.1833 67.2684 15.1833C66.3611 15.1833 65.4538 15.1833 64.5466 15.1833Z" fill="#195839"/>
</svg>
