<svg width="125" height="94" viewBox="0 0 125 94" fill="none" xmlns="http://www.w3.org/2000/svg">
<path d="M61.9125 93C46.6622 93 31.4118 92.8187 16.1615 93C7.08386 93.1813 -0.178221 85.7485 0.00333135 76.8655C0.366435 56.5614 0.366435 36.2573 0.00333135 15.7719C-0.178221 7.61403 7.26541 0 15.9799 0C46.6622 0.181287 77.526 0.181287 108.208 0C117.104 0 124.185 7.43275 124.003 15.7719C123.822 36.2573 124.003 56.7427 123.822 77.2281C123.822 86.4737 117.286 92.8187 108.208 92.8187C92.7764 93 77.3445 93 61.9125 93ZM11.6227 65.807C12.3489 64.7193 13.0751 63.9942 13.6197 63.269C18.8847 58.0117 24.1497 52.7544 29.4148 47.4971C33.2273 43.6901 38.8555 43.6901 42.668 47.3158C44.302 48.7661 45.936 50.3977 47.2068 52.0292C48.4777 53.4795 49.2039 53.2982 50.4748 52.0292C57.9184 44.5965 65.1805 37.1637 72.6241 29.731C76.9814 25.3801 82.4279 25.3801 86.7852 29.731C94.7735 37.7076 102.762 45.6842 110.75 53.6608C111.295 54.2047 111.476 54.9298 112.566 54.7485C112.566 54.0234 112.566 53.4795 112.566 52.9357C112.566 40.7895 112.566 28.8246 112.566 16.6784C112.566 12.3275 111.295 11.0585 106.937 11.0585C76.6183 11.0585 46.4806 11.0585 16.1615 11.0585C11.8042 11.0585 10.5333 12.3275 10.5333 16.6784C10.5333 32.0877 10.5333 47.6784 10.5333 63.0877C11.078 63.8129 10.8965 64.538 11.6227 65.807Z" fill="white" fill-opacity="0.35"/>
<path d="M25.9652 15.5906C31.9564 15.5906 36.4952 20.1228 36.4952 26.1053C36.4952 32.0877 31.7749 36.8012 25.7837 36.6199C19.974 36.6199 15.4352 31.9064 15.4352 25.924C15.6167 19.7602 19.7924 15.5906 25.9652 15.5906Z" fill="white" fill-opacity="0.35"/>
</svg>
