<svg width="143" height="147" viewBox="0 0 143 147" fill="none" xmlns="http://www.w3.org/2000/svg">
<path d="M6.38773 72.1668C6.38773 63.3932 8.09113 54.7917 11.4127 46.7063C12.0941 45.072 11.3276 43.1796 9.70935 42.4915C8.09113 41.8034 6.21739 42.5775 5.53603 44.2118C1.87373 53.1574 0 62.5331 0 72.1668C0 93.8426 9.53901 114.228 26.1471 127.991C26.7433 128.507 27.4247 128.765 28.1912 128.765C29.1281 128.765 30.0649 128.335 30.6611 127.561C31.7683 126.184 31.598 124.12 30.2353 123.002C15.075 110.444 6.38773 91.9503 6.38773 72.1668Z" fill="white" fill-opacity="0.5"/>
<path d="M14.3085 41.9754C16.8636 52.2973 21.4628 61.5009 28.8725 69.1562C32.62 72.9409 36.8785 75.9514 41.9887 77.4997C43.1811 77.8438 43.8624 77.6717 44.6289 76.6396C47.5247 72.4248 51.187 68.9842 55.4455 66.1457C57.4896 64.8555 59.5337 63.6513 61.7481 62.6191C62.2591 62.361 63.0256 62.275 63.1108 61.7589C63.196 61.1568 62.3443 61.0708 61.9184 60.8128C60.8112 60.1246 59.704 59.5225 58.5968 59.0064C55.3603 57.3722 52.0387 55.8239 48.7171 54.2756C49.5688 54.3616 50.3353 54.5337 51.187 54.6197C56.5527 55.5658 61.8332 56.8561 66.3472 60.1246C66.9434 60.5547 67.5396 60.3827 68.1358 60.2107C73.8422 58.4043 79.7189 57.3722 85.6808 56.598C87.5545 56.34 87.5545 56.34 86.4473 54.7917C83.8922 51.093 80.7409 47.9105 77.1638 45.244C70.9464 40.4272 64.1328 36.7285 56.5527 34.5781C49.0578 32.5138 41.3073 31.9116 33.6421 31.2235C26.1471 30.6214 19.1632 28.5571 12.52 25.0304C12.0089 25.0304 11.5831 25.0304 11.0721 25.0304C10.3055 25.7185 10.3055 26.5787 10.561 27.5249C11.8386 32.2557 13.1161 37.0726 14.3085 41.9754Z" fill="white" fill-opacity="0.5"/>
<path d="M37.4747 136.42C37.2192 128.765 38.6671 121.453 41.4777 114.314C43.9476 108.035 47.9506 102.96 53.2311 98.9175C58.5968 94.7888 64.729 92.3803 71.1167 90.316C72.3943 89.8859 73.5867 89.5418 74.8642 89.1978C75.1197 89.1118 75.5456 89.0257 75.7159 89.3698C75.8863 89.7139 75.5456 89.9719 75.2901 90.0579C75.1197 90.1439 74.9494 90.23 74.779 90.316C71.7981 91.7782 68.732 93.1545 65.751 94.7028C57.3192 99.0895 51.1019 105.713 47.0137 114.486C45.9917 116.723 45.2251 119.045 45.3955 121.626C45.4806 123.69 46.673 124.55 48.6319 124.034C49.4836 123.776 50.2502 123.518 51.1018 123.174C53.3163 122.314 55.701 121.712 58.0006 121.195C64.8994 119.733 71.8833 119.217 78.8672 118.099C86.1918 116.981 93.0905 114.744 99.3079 110.616C110.55 103.218 117.705 92.6384 122.219 79.9942C124.689 73.1129 126.051 65.9737 127.925 58.9204C128.436 56.7701 129.032 54.7057 129.628 52.6413C129.884 51.7812 129.628 51.093 128.947 50.4909C128.266 49.9748 127.584 49.9748 126.818 50.3189C126.307 50.577 125.796 50.835 125.37 51.093C122.644 52.4693 119.749 53.5875 116.853 54.4476C108.591 56.9421 100.074 57.7162 91.5575 58.6624C84.5736 59.4365 77.5896 60.2967 70.7761 62.275C57.4044 66.0597 47.6099 74.0591 41.9035 87.0474C36.2823 99.7777 33.4717 113.11 33.5569 128.249C33.4717 131.001 33.642 134.958 34.0679 138.743C34.3234 141.065 34.6641 143.301 35.5158 145.452C36.0268 146.656 36.8785 147.172 37.8154 146.742C38.9226 146.312 39.0077 145.366 38.7522 144.334C38.0709 141.839 37.5599 139.173 37.4747 136.42Z" fill="white" fill-opacity="0.5"/>
<path d="M71.4574 0C53.4866 0 36.2823 6.7952 22.9958 19.1814C21.7183 20.3856 21.6331 22.45 22.8255 23.7402C24.0179 25.0304 26.0619 25.1164 27.3395 23.9122C39.4336 12.6442 55.1048 6.45114 71.4574 6.45114C107.314 6.45114 136.527 35.9544 136.527 72.1668C136.527 108.379 107.314 137.882 71.4574 137.882C62.1739 137.882 53.2311 135.99 44.8845 132.205C43.2662 131.517 41.3925 132.205 40.626 133.84C39.9446 135.474 40.626 137.366 42.2442 138.14C51.4425 142.269 61.237 144.42 71.4574 144.42C110.891 144.42 142.915 111.992 142.915 72.2528C142.915 32.5137 110.891 0 71.4574 0Z" fill="white" fill-opacity="0.5"/>
</svg>
