<svg width="183" height="114" viewBox="0 0 183 114" fill="none" xmlns="http://www.w3.org/2000/svg">
<path d="M0.0158545 16.4781C0.0158545 13.5759 0.0158545 10.5417 0.0158545 7.63948C0.148257 2.62652 2.13429 0.38388 7.29797 0.12004C15.5069 -0.1438 23.5834 -0.0118801 31.7923 0.91156C43.7085 2.23076 55.2275 5.00108 66.0845 9.88212C81.8403 16.8739 94.0213 27.8232 101.965 43.3898C109.38 57.901 112.955 73.4676 113.882 89.8257C114.146 94.179 114.411 98.5324 114.279 102.886C114.279 103.809 114.676 104.996 113.617 105.392C112.558 105.788 112.028 104.601 111.366 103.941C95.2129 87.8469 79.0599 71.7526 62.9068 55.6584C62.1124 54.8668 61.4504 54.2072 60.656 53.5476C58.1404 51.7008 55.3599 51.7008 53.3739 53.8115C51.2554 56.0541 51.2554 58.2968 53.7711 60.8032C57.6107 64.7608 61.5828 68.5865 65.4225 72.5441C77.8683 84.9446 90.4465 97.477 102.892 109.878C103.422 110.405 103.951 110.933 104.481 111.461C104.878 111.988 105.54 112.516 105.275 113.175C105.011 114.099 104.084 113.967 103.422 113.967C98.9202 113.967 94.2861 114.099 89.7845 113.835C81.5755 113.307 73.3666 112.12 65.2901 110.141C50.461 106.316 36.8236 100.115 25.5694 89.4299C18.6845 82.8339 13.5209 75.0506 9.6812 66.3439C2.7963 50.5135 -0.24895 33.7596 0.0158545 16.4781Z" fill="white" fill-opacity="0.35"/>
<path d="M182.995 47.4793C183.128 61.0671 180.347 73.9952 173.727 85.868C168.034 96.0259 159.56 103.018 148.968 107.503C142.083 110.405 134.934 112.252 127.519 113.175C123.944 113.703 123.679 113.439 124.077 110.009C124.209 108.558 124.606 106.975 124.474 105.524C123.812 100.379 126.46 97.0812 130.035 93.9152C135.066 89.298 139.965 84.1531 144.731 79.272C145.526 78.4805 146.188 77.8209 146.85 76.8975C148.439 74.5229 148.041 71.6207 146.188 69.9057C144.202 68.1908 141.818 68.0588 139.435 70.1696C135.728 73.5995 132.286 77.2933 128.711 80.7232C127.519 81.9104 126.46 84.4169 124.606 83.7573C122.753 83.0977 123.679 80.5912 123.415 78.8763C122.355 72.1484 121.296 65.4204 119.178 58.9564C117.456 53.6796 117.589 53.2838 121.826 49.59C131.359 41.2791 142.613 36.7938 154.926 34.9469C161.811 33.8916 168.828 32.9681 175.846 33.6277C181.142 34.1554 182.863 36.0023 182.995 41.2791C182.995 43.2579 182.995 45.3686 182.995 47.4793Z" fill="white" fill-opacity="0.35"/>
</svg>
