<svg width="186" height="150" viewBox="0 0 186 150" fill="none" xmlns="http://www.w3.org/2000/svg">
<path d="M76.6697 150C56.615 149.942 39.3344 145.955 23.2676 137.228C15.3497 132.951 8.24096 127.518 2.05695 120.929C-0.0814533 118.675 -0.601604 115.612 0.727671 113.243C2.23033 110.642 4.59991 110.064 7.43184 110.411C33.9017 113.705 58.8112 108.85 82.0446 95.731C97.418 87.0619 110.017 75.3873 119.322 60.3029C120.131 58.9737 120.825 57.7022 122.559 59.3205C129.956 65.9668 138.626 68.5676 148.451 67.4117C150.994 67.1227 152.323 67.7585 153.537 70.1858C158.16 79.3174 165.616 84.9235 175.672 87.0619C178.446 87.6398 178.677 88.1021 177.348 90.7607C170.124 105.036 159.836 116.71 147.064 126.247C130.997 138.268 112.907 145.434 93.199 148.671C87.1305 149.653 80.9465 149.653 76.6697 150Z" fill="white"/>
<path d="M154.23 30.2497C156.022 30.3075 158.16 30.1341 160.241 30.8276C162.148 31.4634 162.668 30.6542 162.61 28.9204C162.264 21.6961 159.201 15.801 153.71 11.1197C150.185 8.11437 149.491 4.76229 152.034 1.93035C154.346 -0.728197 157.987 -0.612615 161.281 2.10373C169.777 9.03908 173.591 18.344 174.689 28.9782C174.747 29.6717 174.863 30.4231 174.632 31.001C172.898 35.3356 174.921 38.2253 177.868 41.2885C184.977 48.8018 186.364 58.0489 185.035 67.9317C184.688 70.4747 183.937 73.0177 183.359 75.5606C182.896 77.3523 181.798 77.9302 179.891 77.7568C170.413 76.7165 162.899 70.3591 160.472 61.2276C159.085 56.0261 157.12 54.928 151.861 56.604C144.405 58.9158 137.47 58.1645 130.997 53.5987C125.391 49.6109 125.044 47.3569 129.321 42.1554C135.678 34.3531 144.174 30.3075 154.23 30.2497Z" fill="white"/>
</svg>
