<svg width="53" height="48" viewBox="0 0 53 48" fill="none" xmlns="http://www.w3.org/2000/svg">
<path d="M14.6241 17.0205C15.7465 17.0038 16.8854 17.0205 18.0078 17.0205C19.3777 17.0205 19.3777 17.0205 19.3777 18.3681C19.3777 22.9934 19.3612 27.6354 19.3777 32.2607C19.3943 34.6565 20.7147 35.9542 23.075 35.9709C25.3363 35.9709 27.5811 35.9709 29.8424 35.9709C32.2192 35.9709 33.5397 34.6565 33.5562 32.2773C33.5727 30.2475 33.5562 28.2343 33.5562 26.2045C33.5562 23.4593 33.5727 20.714 33.5397 17.9688C33.5397 17.2367 33.7873 16.9705 34.497 17.0038C35.1573 17.0537 35.8175 17.0205 36.4777 17.0205C37.0884 17.0205 37.6826 17.0205 38.2934 17.0205C39.5808 17.0038 40.4721 16.4714 40.8517 15.4399C41.2644 14.3085 40.7857 13.4433 40.0265 12.678C36.2301 8.81802 32.4008 4.95806 28.5715 1.0981C27.8947 0.415946 27.152 -0.149738 26.1121 0.0166396C25.2868 0.149742 24.7586 0.715426 24.2139 1.26447C21.8866 3.6104 19.5593 5.97296 17.232 8.31889C15.763 9.79965 14.261 11.2638 12.7919 12.7778C12.0492 13.5265 11.6365 14.425 12.0987 15.4898C12.5774 16.5879 13.4522 17.0537 14.6241 17.0205Z" fill="#195839"/>
<path d="M52.9175 25.3228C52.901 23.2264 50.6397 22.0285 48.8571 23.1266C47.8172 23.7754 47.4211 24.7571 47.4211 25.9384C47.4211 29.4656 47.4376 32.9761 47.4211 36.5033C47.4045 39.9141 44.9287 42.4264 41.5285 42.4264C31.493 42.443 21.4575 42.443 11.422 42.4264C7.97228 42.4264 5.52943 39.9141 5.51292 36.4368C5.49642 33.7747 5.51292 31.1127 5.51292 28.4507C5.51292 27.4857 5.54594 26.504 5.49642 25.539C5.41389 23.9252 4.07692 22.6108 2.60791 22.6773C1.08938 22.7439 0 23.9585 0 25.6389C0 29.5155 0 33.4087 0 37.2853C0 38.5831 0.247586 39.8309 0.808782 40.9955C2.97104 45.5876 6.55279 48 11.6531 48C16.6048 48 21.5565 48 26.5083 48C31.46 48 36.4117 47.9834 41.3634 48C43.0965 48 44.7636 47.7505 46.3317 46.9851C50.1775 45.0884 52.6204 42.0604 52.8845 37.7013C53.1155 33.5917 52.9505 29.4489 52.9175 25.3228Z" fill="#195839"/>
</svg>
